<?xml version="1.0" encoding="utf-8"?>
<svg xmlns="http://www.w3.org/2000/svg" fill="none" height="100%" overflow="visible" preserveAspectRatio="xMidYMid meet" style="display: block;" viewBox="0 0 10 10" width="100%">
<g id="Clip path group">
<mask height="10" id="mask0_0_6428" maskUnits="userSpaceOnUse" style="mask-type:luminance" width="10" x="0" y="0">
<g id="a">
<path d="M10 10V0L0 0V10H10Z" fill="var(--fill-0, white)" id="Vector"/>
</g>
</mask>
<g mask="url(#mask0_0_6428)">
<g id="Group">
<path d="M5.1 9.75825L9.66667 5.73741C9.86643 5.54215 9.98542 5.27888 10 4.99991C9.98542 4.72095 9.86643 4.45768 9.66667 4.26241L5.08333 0.24158C5.02732 0.180389 4.95898 0.131755 4.88281 0.0988802C4.80664 0.0660051 4.72437 0.0496339 4.64142 0.050844C4.55847 0.0520541 4.47672 0.0708181 4.40154 0.105901C4.32637 0.140984 4.25947 0.19159 4.20527 0.254389C4.15106 0.317188 4.11076 0.390755 4.08704 0.470249C4.06331 0.549743 4.05669 0.63336 4.0676 0.715598C4.07852 0.797836 4.10673 0.876829 4.15038 0.947378C4.19402 1.01793 4.25212 1.07843 4.32083 1.12491L7.84583 4.22908C7.86216 4.24313 7.87373 4.26189 7.87895 4.28278C7.88418 4.30367 7.8828 4.32567 7.875 4.34575C7.86751 4.36516 7.85438 4.38188 7.8373 4.39377C7.82022 4.40565 7.79997 4.41214 7.77917 4.41241H0.5875C0.431685 4.41241 0.282253 4.47431 0.172075 4.58449C0.0618966 4.69466 2.27592e-07 4.8441 2.20781e-07 4.99991C2.1397e-07 5.15573 0.0618965 5.30516 0.172075 5.41534C0.282253 5.52552 0.431685 5.58741 0.5875 5.58741H7.77917C7.79997 5.58768 7.82022 5.59418 7.8373 5.60606C7.85438 5.61794 7.86751 5.63467 7.875 5.65408C7.8828 5.67416 7.88418 5.69615 7.87895 5.71705C7.87373 5.73794 7.86216 5.7567 7.84583 5.77075L4.32083 8.87491C4.2037 8.97824 4.1324 9.12386 4.12263 9.27975C4.11287 9.43564 4.16543 9.58903 4.26875 9.70616C4.37207 9.8233 4.5177 9.8946 4.67359 9.90436C4.82948 9.91413 4.98286 9.86157 5.1 9.75825Z" fill="var(--fill-0, black)" id="Vector_2"/>
</g>
</g>
</g>
</svg>