<?xml version="1.0" encoding="utf-8"?>
<svg xmlns="http://www.w3.org/2000/svg" fill="none" height="100%" overflow="visible" preserveAspectRatio="xMidYMid meet" style="display: block;" viewBox="0 0 13 14.5027" width="100%">
<path d="M9.5 14.5027H12.5C12.6326 14.5027 12.7598 14.45 12.8536 14.3562C12.9473 14.2625 13 14.1353 13 14.0027V5.60269C13 1.83267 10.87 0.00266754 7.89 0.00266754C7.2999 -0.0183225 6.7119 0.0847479 6.1642 0.305238C5.6164 0.525718 5.121 0.858707 4.71 1.28267C4.6541 1.34332 4.5805 1.3847 4.4996 1.40087C4.4188 1.41704 4.3349 1.40717 4.26 1.37267C4.1844 1.34443 4.1191 1.29398 4.0727 1.22794C4.0263 1.16191 4.001 1.08338 4 1.00267C4 0.870068 3.9473 0.742888 3.8536 0.649118C3.7598 0.555348 3.6326 0.502668 3.5 0.502668H0.5C0.36739 0.502668 0.24021 0.555348 0.14645 0.649118C0.05268 0.742888 0 0.870068 0 1.00267V14.0027C0 14.1353 0.05268 14.2625 0.14645 14.3562C0.24021 14.45 0.36739 14.5027 0.5 14.5027H3.5C3.6326 14.5027 3.7598 14.45 3.8536 14.3562C3.9473 14.2625 4 14.1353 4 14.0027V6.50269C4 5.83959 4.2634 5.20379 4.7322 4.73489C5.2011 4.26609 5.837 4.00269 6.5 4.00269C7.163 4.00269 7.7989 4.26609 8.2678 4.73489C8.7366 5.20379 9 5.83959 9 6.50269V14.0027C9 14.1353 9.0527 14.2625 9.1464 14.3562C9.2402 14.45 9.3674 14.5027 9.5 14.5027Z" fill="var(--fill-0, black)" id="Vector"/>
</svg>