<?xml version="1.0" encoding="utf-8"?>
<svg xmlns="http://www.w3.org/2000/svg" fill="none" height="100%" overflow="visible" preserveAspectRatio="xMidYMid meet" style="display: block;" viewBox="0 0 16 16" width="100%">
<g id="Clip path group">
<mask height="16" id="mask0_0_6374" maskUnits="userSpaceOnUse" style="mask-type:luminance" width="16" x="0" y="0">
<g id="a">
<path d="M16 0H0V16H16V0Z" fill="var(--fill-0, white)" id="Vector"/>
</g>
</mask>
<g mask="url(#mask0_0_6374)">
<g id="Group">
<path clip-rule="evenodd" d="M9.2 1.2C9.2 0.88174 9.07357 0.576516 8.84853 0.351472C8.62348 0.126428 8.31826 0 8 0C7.68174 0 7.37652 0.126428 7.15147 0.351472C6.92643 0.576516 6.8 0.88174 6.8 1.2V6.8H1.2C0.88174 6.8 0.576516 6.92643 0.351472 7.15147C0.126428 7.37652 0 7.68174 0 8C0 8.31826 0.126428 8.62348 0.351472 8.84853C0.576516 9.07357 0.88174 9.2 1.2 9.2H6.8V14.8C6.8 15.1183 6.92643 15.4235 7.15147 15.6485C7.37652 15.8736 7.68174 16 8 16C8.31826 16 8.62348 15.8736 8.84853 15.6485C9.07357 15.4235 9.2 15.1183 9.2 14.8V9.2H14.8C15.1183 9.2 15.4235 9.07357 15.6485 8.84853C15.8736 8.62348 16 8.31826 16 8C16 7.68174 15.8736 7.37652 15.6485 7.15147C15.4235 6.92643 15.1183 6.8 14.8 6.8H9.2V1.2Z" fill="var(--fill-0, black)" fill-rule="evenodd" id="Vector_2"/>
</g>
</g>
</g>
</svg>