<?xml version="1.0" encoding="utf-8"?>
<svg xmlns="http://www.w3.org/2000/svg" fill="none" height="100%" overflow="visible" preserveAspectRatio="xMidYMid meet" style="display: block;" viewBox="0 0 55.3125 66.6094" width="100%">
<g id="Group 104">
<g id="Group 101">
<path d="M48.1875 31.4531C45.675 31.4531 44.3594 32.3906 44.0156 32.8594C44.0156 35.0344 43.7656 38.7656 43.6406 40.3594C43.9531 38.7969 45.225 35.6719 47.8125 35.6719C50.4 35.6719 50.8594 37.9844 50.7656 39.1406C50.7656 45.2906 44.9844 48.7344 42.0938 49.6875L40.6406 54.8906C51.3281 51.2813 54.7031 44.4844 54.7031 39.1406C54.7031 33.7969 51.3281 31.4531 48.1875 31.4531Z" fill="var(--fill-0, #DBB89E)" id="Vector 2196"/>
<path d="M54.0938 39.1406C54.0938 36.6023 53.2956 34.843 52.1891 33.7208C51.0768 32.5927 49.6088 32.0625 48.1875 32.0625C46.1039 32.0625 44.9992 32.7435 44.624 33.093C44.616 34.1854 44.5543 35.5976 44.4793 36.9343C45.2191 35.9328 46.313 35.0625 47.8125 35.0625C49.3277 35.0625 50.2861 35.7596 50.8193 36.6629C51.3206 37.5123 51.4241 38.4999 51.3748 39.1643C51.3674 42.4371 49.8222 44.9763 47.9375 46.8008C46.1799 48.5021 44.0999 49.6111 42.5949 50.1584L41.5441 53.921C51.1435 50.3052 54.0938 44.0072 54.0938 39.1406ZM55.3125 39.1406C55.3125 44.7806 51.7361 51.7867 40.8356 55.468L39.7437 55.8367L41.5942 49.2105L41.903 49.1088C43.2741 48.6567 45.3585 47.601 47.0899 45.925C48.8139 44.2562 50.1563 42.0065 50.1563 39.1406V39.116L50.1583 39.0914C50.1981 38.5997 50.115 37.8674 49.7697 37.2824C49.4498 36.7404 48.8848 36.2812 47.8125 36.2812C46.7975 36.2812 45.9945 36.8867 45.3735 37.778C44.752 38.6699 44.3823 39.7583 44.2382 40.4789L43.0331 40.3118C43.1581 38.7177 43.4063 35.0079 43.4063 32.8594V32.6599L43.5243 32.499C44.0157 31.8289 45.5443 30.8438 48.1875 30.8438C49.9068 30.8438 51.6966 31.4854 53.057 32.8651C54.4231 34.2507 55.3125 36.3352 55.3125 39.1406Z" fill="var(--fill-0, #35201F)" id="Vector 2196 (Stroke)"/>
<path d="M41.0625 62.8125C41.0625 64.9094 32.7098 66.6094 22.4062 66.6094C12.1027 66.6094 3.75 64.9094 3.75 62.8125C3.75 60.7155 12.1027 59.0156 22.4062 59.0156C32.7098 59.0156 41.0625 60.7155 41.0625 62.8125Z" fill="var(--fill-0, #DDC5BC)" id="Ellipse 506"/>
<path d="M22.0313 21.6094C4.89375 21.6094 0.609379 25.3594 0.609379 27.2344V37.1719C0.609379 48.6094 4.07813 57.5625 7.6875 61.3594C11.2969 65.1563 31.3594 66.8438 37.0313 61.3594C41.5688 56.9719 43.5156 43.4063 43.9219 37.1719V27C43.7656 25.2031 39.1688 21.6094 22.0313 21.6094Z" fill="var(--fill-0, #FEFFFD)" id="Vector 2195"/>
<path d="M22.0312 21C30.6339 21 36.1414 21.9009 39.5403 23.0538C41.2395 23.6302 42.4365 24.2777 43.2314 24.928C44.0143 25.5685 44.4697 26.2661 44.529 26.9472L44.5312 26.9735V37.1917L44.53 37.2115C44.3251 40.355 43.7329 45.3391 42.6191 50.0971C42.0621 52.4763 41.3716 54.8128 40.5276 56.8401C39.6873 58.8581 38.6761 60.6166 37.4549 61.7975C35.9118 63.2895 33.4567 64.2426 30.682 64.8043C27.8889 65.3698 24.6871 65.5555 21.5652 65.4489C18.4426 65.3422 15.3768 64.9423 12.8526 64.3243C11.5908 64.0154 10.453 63.6492 9.50629 63.2321C8.56829 62.8188 7.77675 62.3377 7.24585 61.7792C3.48938 57.8276 0 48.6971 0 37.1719V27.2344C0 26.533 0.393776 25.7963 1.13425 25.1158C1.8813 24.4292 3.031 23.7495 4.68494 23.1463C7.99274 21.9399 13.4282 21 22.0312 21ZM1.21875 37.1719C1.21875 48.5216 4.66687 57.2974 8.12915 60.9395C8.50059 61.3303 9.12557 61.7325 9.99774 62.1168C10.8612 62.4973 11.9273 62.843 13.1425 63.1405C15.5725 63.7355 18.5536 64.1266 21.6067 64.2308C24.6606 64.3351 27.7635 64.1517 30.4401 63.6097C33.1351 63.0641 35.3148 62.1714 36.6076 60.9213C37.6552 59.9084 38.5888 58.3259 39.4025 56.3716C40.2123 54.4265 40.8847 52.1592 41.4325 49.8193C42.5258 45.1486 43.1099 40.2431 43.3125 37.1511V27.0318C43.2842 26.8087 43.0975 26.3931 42.4597 25.8713C41.8131 25.3424 40.7605 24.7546 39.1488 24.2079C35.9258 23.1147 30.5661 22.2188 22.0312 22.2188C13.4968 22.2188 8.22127 23.1538 5.10251 24.2912C3.54321 24.8599 2.55076 25.4693 1.95895 26.0132C1.36056 26.5631 1.21875 26.9983 1.21875 27.2344V37.1719Z" fill="var(--fill-0, #35201F)" id="Vector 2195 (Stroke)"/>
<g id="Vector 2200">
<path d="M45.7969 34.8282V32.1094C46.8282 31.8282 54.1876 30.6563 54.1876 39.375C54.1876 46.35 48.7813 49.4688 46.0782 50.1563C49.0782 48.0469 52.3126 42.5157 52.3126 39.375C52.3126 36.2344 49.8282 34.3594 48.2813 34.3594C47.0438 34.3594 46.1094 34.6719 45.7969 34.8282Z" fill="var(--fill-0, #F3E0CF)"/>
<path d="M17.0157 32.9063C11.2032 32.9063 4.64069 31.3594 2.34382 29.5781C2.34382 31.1719 2.23015 35.1582 2.34382 38.5313C2.4844 42.7031 4.59382 55.7813 6.98444 59.8125C9.37507 63.8438 18.4688 64.1719 22.3594 64.1719C25.4719 64.1719 27.3438 63.8594 27.8907 63.7031L34.2188 59.3438L39.0938 49.4531L39.9376 32.1094L37.1251 32.9063H17.0157Z" fill="var(--fill-0, #F3E0CF)"/>
</g>
<path d="M17.1562 39.8438C17.1562 40.6981 16.4637 41.3906 15.6094 41.3906C14.7551 41.3906 14.0625 40.6981 14.0625 39.8438C14.0625 38.9894 14.7551 38.2969 15.6094 38.2969C16.4637 38.2969 17.1562 38.9894 17.1562 39.8438Z" fill="var(--fill-0, #35201F)" id="Ellipse 501"/>
<path d="M6.1875 44.25C6.1875 44.7937 5.83073 45.2344 5.39063 45.2344C4.95053 45.2344 4.59375 44.7937 4.59375 44.25C4.59375 43.7063 4.95053 43.2656 5.39063 43.2656C5.83073 43.2656 6.1875 43.7063 6.1875 44.25Z" fill="var(--fill-0, #FEFFFD)" id="Ellipse 505"/>
<path d="M3.93754 34.8281C3.60004 36.0281 3.92191 39.4219 4.12504 40.9688C4.29736 42.5156 5.8125 42.1406 5.53125 40.7813C5.25 39.4219 5.53125 37.2656 5.53125 35.0156C5.53125 32.7656 4.35941 33.3281 3.93754 34.8281Z" fill="var(--fill-0, #FEFFFD)" id="Vector 2198"/>
<path d="M15.2813 43.2656C15.2813 43.9387 14.3369 44.4844 13.1719 44.4844C12.0069 44.4844 11.0625 43.9387 11.0625 43.2656C11.0625 42.5925 12.0069 42.0469 13.1719 42.0469C14.3369 42.0469 15.2813 42.5925 15.2813 43.2656Z" fill="var(--fill-0, #FEA893)" id="Ellipse 503"/>
<path d="M33.375 43.2656C33.375 43.9387 32.4306 44.4844 31.2656 44.4844C30.1006 44.4844 29.1562 43.9387 29.1562 43.2656C29.1562 42.5925 30.1006 42.0469 31.2656 42.0469C32.4306 42.0469 33.375 42.5925 33.375 43.2656Z" fill="var(--fill-0, #FEA893)" id="Ellipse 504"/>
<path d="M30.5625 39.8438C30.5625 40.6981 29.8699 41.3906 29.0156 41.3906C28.1613 41.3906 27.4688 40.6981 27.4688 39.8438C27.4688 38.9894 28.1613 38.2969 29.0156 38.2969C29.8699 38.2969 30.5625 38.9894 30.5625 39.8438Z" fill="var(--fill-0, #35201F)" id="Ellipse 502"/>
<path d="M19.7061 42.0809C19.8426 41.9618 20.0499 41.9758 20.1691 42.1123C21.1417 43.2265 22.0196 43.4227 22.6975 43.2958C23.4059 43.1633 23.9845 42.6622 24.2963 42.2299C24.4024 42.0829 24.6075 42.0497 24.7545 42.1557C24.9014 42.2617 24.9346 42.4669 24.8286 42.6139C24.4529 43.1347 23.7425 43.768 22.8181 43.9409C21.8632 44.1196 20.7645 43.7923 19.6747 42.5439C19.5555 42.4074 19.5696 42.2001 19.7061 42.0809Z" fill="var(--fill-0, #35201F)" id="Vector 2197 (Stroke)"/>
<path d="M14.9062 0C14.8127 0.0544896 14.7137 0.114838 14.6103 0.180807C13.9944 0.661304 13.1431 1.94695 13.1431 4.5C13.1431 8.25 17.9062 8.8125 17.9062 12.75C17.9062 15.9 15.25 18.125 13.9219 18.8438C14.25 18.2187 14.9062 16.4719 14.9062 14.4844C14.9062 12 10.0781 10.7812 10.0781 6.79688C10.0781 3.79464 12.9336 1.24983 14.6103 0.180807C14.7181 0.096688 14.8187 0.037246 14.9062 0Z" fill="var(--fill-0, #E6D6C9)" id="Vector 2201"/>
<path d="M5.76563 12.7969C5.76563 10.6594 7.10938 9.21875 7.78125 8.76562C7.65625 8.9375 7.40625 9.66562 7.40625 11.2031C7.40625 13.125 11.2031 13.9219 11.2031 16.2656C11.2031 18.1406 9.67188 19.8281 8.90625 20.4375C9.10938 20.0781 9.51563 19.0031 9.51563 17.5781C9.51563 15.7969 5.76563 15.4687 5.76563 12.7969Z" fill="var(--fill-0, #E6D6C9)" id="Vector 2202"/>
<path d="M45.7969 33.6094V32.1094C46.9594 31.8469 47.5097 31.9688 48.6094 31.9688C53.4844 31.9688 54.1875 37.1876 54.0469 39.7969C53.8125 34.4063 50.9062 32.9532 48.6094 32.9532C46.7719 32.9532 45.9688 33.3907 45.7969 33.6094Z" fill="var(--fill-0, #FEFFFD)" id="Vector 2203"/>
<path d="M43.4531 37.2975V27.9269C41.9219 29.5363 38.8406 32.5031 36.8906 32.5781C34.9406 32.6531 32.8594 32.6094 32.0625 32.5781C31.7969 33.1094 30.9375 34.1719 29.625 34.1719C30.0469 34.3125 31.125 34.3594 32.0625 33.4219H36.75C37.5156 33.3125 39.1875 32.8969 39.75 32.1094C40.25 41.4219 38.2594 60.825 26.2969 63.9375C29.125 63.875 34.8094 62.9906 36.6094 61.0781C41.1469 56.6906 43.0469 43.5318 43.4531 37.2975Z" fill="var(--fill-0, #D7B599)" id="Vector 2199"/>
<path d="M4.17188 25.7344C3.46093 26.0119 2.8932 26.6911 2.92896 27.422C2.92931 27.4374 2.92982 27.453 2.9306 27.4687C3.2219 29.107 5.276 29.6118 6.79422 30.0405C8.43129 30.4442 10.1112 30.6555 11.8151 30.8133C15.1876 31.1118 18.5995 31.1688 22.0312 31.1719C22.074 31.1719 22.1166 31.1719 22.1591 31.1719C25.5873 31.1651 29.0487 31.1477 32.4526 30.9155C35.6559 30.5201 39.9764 30.7456 41.3232 27.4381L41.3223 27.4413C41.3263 27.4285 41.3298 27.4139 41.3326 27.3995C41.411 26.6985 40.6595 26.124 39.9844 25.8281C40.6768 26.0667 41.5459 26.4954 41.5622 27.4296C41.5602 27.4513 41.557 27.4744 41.5527 27.4962L41.5518 27.4994C41.2101 29.3575 39.3057 30.3488 37.6832 30.8631C36.0076 31.4006 34.2652 31.6754 32.5445 31.8844C29.096 32.2849 25.6072 32.3836 22.1599 32.3906C22.1171 32.3906 22.0742 32.3906 22.0312 32.3906C18.5714 32.3854 15.1212 32.2452 11.7043 31.7771C9.97771 31.534 8.27452 31.2168 6.60992 30.6782C5.08656 30.1049 2.90283 29.4804 2.6944 27.4687C2.69518 27.4509 2.69614 27.4331 2.69742 27.4156C2.74337 26.571 3.44028 25.9335 4.17188 25.7344Z" fill="var(--fill-0, #35201F)" id="Vector 2204 (Stroke)"/>
<path d="M17.8125 27.1406C17.6467 27.1344 17.4914 27.1278 17.3263 27.1211C14.435 26.9471 11.5021 26.9324 8.87604 28.2915C8.72599 28.361 8.58665 28.4271 8.4375 28.5C8.58074 28.416 8.71439 28.339 8.85901 28.2582C11.3515 26.695 14.4625 26.4513 17.3283 26.4087C17.493 26.4029 17.6476 26.3969 17.8125 26.3906C17.8125 26.6406 17.8125 26.8906 17.8125 27.1406Z" fill="var(--fill-0, #D9D9D9)" id="Vector 2205 (Stroke)"/>
<path d="M41.4375 27.4688C41.4375 29.8764 32.791 31.8281 22.125 31.8281C11.459 31.8281 2.8125 29.8764 2.8125 27.4688C2.8125 25.0611 11.459 23.1094 22.125 23.1094C32.791 23.1094 41.4375 25.0611 41.4375 27.4688Z" fill="var(--fill-0, #DBB89E)" id="Ellipse 507"/>
<path d="M39.8438 29.1563C39.8438 29.3464 39.8438 29.625 39.8438 29.625C39.8438 29.625 37.7812 32.1563 22.125 32.1563C6.46875 32.1563 4.40625 29.625 4.40625 29.625C4.40625 29.625 4.40625 31.0202 4.40625 29.1563C4.40625 27.2923 12.3392 25.0781 22.125 25.0781C31.9108 25.0781 39.8438 27.2923 39.8438 29.1563Z" fill="var(--fill-0, #8B5139)" id="Ellipse 508"/>
<path d="M39.375 29.1563C39.375 29.0964 39.3424 28.9698 39.1503 28.7753C38.9614 28.5841 38.6597 28.371 38.2338 28.1479C37.3845 27.703 36.1278 27.2624 34.5424 26.8735C31.3778 26.0972 26.9862 25.5469 22.125 25.5469C17.2638 25.5469 12.8722 26.0972 9.70761 26.8735C8.12217 27.2624 6.86552 27.703 6.0162 28.1479C5.59026 28.371 5.28858 28.5841 5.09967 28.7753C4.90757 28.9698 4.875 29.0964 4.875 29.1563V29.4106C4.94416 29.4605 5.04792 29.5279 5.19644 29.6083C5.59268 29.823 6.30183 30.1271 7.51071 30.4365C9.93092 31.0559 14.3176 31.6875 22.125 31.6875V32.1563C6.46875 32.1563 4.40625 29.625 4.40625 29.625C4.40625 29.625 4.40625 31.0202 4.40625 29.1563C4.40625 27.2923 12.3392 25.0781 22.125 25.0781C31.9108 25.0781 39.8438 27.2923 39.8438 29.1563V29.625C39.8438 29.625 37.7812 32.1563 22.125 32.1563V31.6875C29.9324 31.6875 34.3191 31.0559 36.7393 30.4365C37.9482 30.1271 38.6573 29.823 39.0536 29.6083C39.2021 29.5279 39.3058 29.4605 39.375 29.4106V29.1563Z" fill="var(--fill-0, #35201F)" id="Ellipse 508 (Stroke)"/>
<path d="M20.5781 26.3437C20.5781 26.5508 20.4102 26.7187 20.2031 26.7187C19.996 26.7187 19.8281 26.5508 19.8281 26.3437C19.8281 26.1366 19.996 25.9687 20.2031 25.9687C20.4102 25.9687 20.5781 26.1366 20.5781 26.3437Z" fill="var(--fill-0, #D9D9D9)" id="Ellipse 509"/>
<g id="Group 103">
<path d="M29.2059 28.311C27.6509 28.6523 27.199 27.0626 27.1674 26.225C28.6845 26.9456 31.1181 26.8729 32.1453 26.7465C31.2919 26.9361 31.1497 27.8843 29.2059 28.311Z" fill="var(--fill-0, #FDDBC0)" id="Vector 2213"/>
<g id="Group 102">
<g id="Vector 2208">
<path d="M22.4739 21.5794C22.4265 22.9859 23.6117 25.9411 28.7318 26.51C29.0637 26.589 29.9739 26.747 30.96 26.747C31.9461 26.747 33.2041 26.4625 33.7097 26.3203C34.7211 25.9885 36.8577 25.0592 37.3128 23.9973C38.0556 24.2027 39.7117 24.3955 40.3944 23.5232C41.2477 22.4328 41.8166 20.485 40.0625 20.015C38.3084 19.5449 40.0151 20.6787 38.0714 21.9587L37.9291 18.2134L36.6965 15.6059L35.7957 11.9555H29.3481H26.314L22.6161 14.9422L21.7627 17.4075L22.2842 18.4031C21.7785 18.3082 20.7671 18.422 20.7671 19.6357C20.7671 21.1528 21.7153 21.6269 21.905 21.3424C22.0567 21.1148 22.3474 21.4056 22.4739 21.5794Z" fill="#FDDBC0"/>
<path clip-rule="evenodd" d="M19.4871 30.7862C19.7443 31.0583 19.9985 31.3555 20.2456 31.6775H22.0946H27.6176C27.8331 31.0004 28.4086 30.2132 29.4904 29.4019C30.5334 29.4019 31.2919 30.6819 31.3867 31.3931C31.4146 31.6019 31.377 31.8926 31.2667 32.199L31.5763 32.3886C35.9854 33.0998 38.8773 31.4879 39.7307 30.2078C40.584 28.9278 39.3514 26.0359 36.5069 26.0359C33.6623 26.0359 30.6282 27.553 30.0119 28.1219C29.3955 28.6908 27.7362 28.3589 27.4992 27.2211C27.3096 26.3108 26.2508 26.0517 25.7451 26.0359C23.8487 26.3772 20.7829 29.345 19.4871 30.7862Z" fill="#F4BA70" fill-rule="evenodd"/>
<path d="M13.9877 29.1174C13.0016 29.6484 12.2494 30.6661 11.9965 31.1086C13.4978 31.3773 17.2494 31.8672 20.2456 31.6775L19.4871 30.7862C18.116 29.3355 16.66 28.5959 15.7418 28.5959C14.8695 28.5959 14.2089 28.9436 13.9877 29.1174Z" fill="#8B949B"/>
<path d="M11.7595 27.9322C10.2424 27.9322 8.88334 29.5441 8.39345 30.3501C9.79675 30.881 11.3802 31.077 11.9965 31.1086C12.2494 30.6661 13.0016 29.6484 13.9877 29.1174C13.8771 28.7224 13.2766 27.9322 11.7595 27.9322Z" fill="#8B949B"/>
<path d="M31.3867 31.3931C31.2919 30.6819 30.5334 29.4019 29.4904 29.4019C28.4086 30.2132 27.8331 31.0004 27.6176 31.6775C27.2287 32.8997 28.0128 33.7635 29.1111 33.7635C30.3165 33.7635 31.0017 32.9358 31.2667 32.199C31.377 31.8926 31.4146 31.6019 31.3867 31.3931Z" fill="#FDDBC0"/>
</g>
<path d="M35.7956 11.7188C35.9046 11.7188 35.9996 11.7932 36.0257 11.899L36.9207 15.5264L38.1432 18.1125L38.1524 18.1346C38.1604 18.1571 38.1649 18.1808 38.1658 18.2048L38.2908 21.498C38.5238 21.2959 38.6606 21.1078 38.744 20.9424C38.8631 20.7063 38.8844 20.4982 38.9019 20.3091C38.9099 20.2217 38.9188 20.1119 38.947 20.0181C38.9788 19.9122 39.0429 19.7984 39.1761 19.7299C39.2946 19.669 39.434 19.6624 39.5746 19.6753C39.7196 19.6886 39.9001 19.7264 40.1238 19.7863C40.6068 19.9157 40.953 20.1543 41.1705 20.4755C41.3864 20.7941 41.4594 21.1699 41.443 21.5471C41.4105 22.2933 41.0274 23.0991 40.5809 23.6697C40.1763 24.1867 39.5053 24.3648 38.89 24.4013C38.3588 24.4329 37.8257 24.3617 37.4378 24.2732C37.2963 24.5148 37.09 24.7385 36.8548 24.9415C36.5591 25.1965 36.2036 25.4312 35.8366 25.6392C35.6963 25.7187 35.5534 25.7947 35.4106 25.8668C35.7749 25.8234 36.142 25.7992 36.5067 25.7992C38.0179 25.7992 39.1095 26.5705 39.7058 27.5157C40.2909 28.4431 40.4257 29.5927 39.9277 30.3397C39.0071 31.7206 36.0073 33.3438 31.5384 32.623C31.5079 32.618 31.4787 32.6072 31.4524 32.5911L31.3777 32.5454C31.0296 33.2685 30.301 34.0009 29.1109 34.0009C28.5003 34.0009 27.9553 33.7597 27.6189 33.324C27.3323 32.9529 27.2149 32.4637 27.3143 31.9149H20.2527C17.2394 32.1044 13.4853 31.615 11.9685 31.3447C11.3254 31.3098 9.73071 31.1099 8.3094 30.5721C8.24349 30.5471 8.19205 30.4942 8.16912 30.4275C8.14619 30.3609 8.15409 30.2875 8.1907 30.2273C8.44676 29.806 8.92479 29.1813 9.53731 28.6589C10.1462 28.1396 10.9188 27.6955 11.7593 27.6955C13.0933 27.6955 13.806 28.2785 14.0919 28.7695C14.4426 28.5764 15.0278 28.3592 15.7417 28.3592C16.2572 28.3592 16.892 28.5641 17.5608 28.9408C18.1773 29.2881 18.8373 29.7896 19.4817 30.4403C20.1468 29.7181 21.1607 28.7095 22.2396 27.8163C22.8277 27.3295 23.4388 26.8738 24.0263 26.5171C24.5 26.2295 24.9687 25.9996 25.4043 25.8735C22.9654 24.7246 22.2348 22.8199 22.2355 21.6601C22.1859 21.6018 22.1267 21.5446 22.0747 21.5127C22.0743 21.5125 22.0739 21.5123 22.0735 21.5121C21.9443 21.6656 21.7425 21.6766 21.5909 21.6397C21.4206 21.5982 21.2465 21.4888 21.0935 21.3288C20.7829 21.0042 20.5299 20.4436 20.5299 19.636C20.5299 18.9498 20.8241 18.533 21.2245 18.3198C21.4367 18.2068 21.6678 18.1566 21.8804 18.1438L21.5526 17.5178C21.5222 17.4599 21.5172 17.3921 21.5386 17.3303L22.3919 14.865L22.3979 14.8495C22.413 14.8139 22.4367 14.7825 22.4669 14.7581L26.1648 11.7713L26.1811 11.7593C26.2202 11.7329 26.2664 11.7188 26.3138 11.7188H35.7956ZM29.5663 29.6421C28.5515 30.4174 28.0345 31.1488 27.8433 31.7497C27.6687 32.2984 27.764 32.7363 27.9941 33.0343C28.2271 33.336 28.6233 33.5268 29.1109 33.5268C30.1848 33.5268 30.8002 32.7954 31.0435 32.1191C31.1452 31.8364 31.1729 31.5851 31.1516 31.4247C31.1108 31.1194 30.919 30.6614 30.6099 30.2805C30.3189 29.922 29.9575 29.6711 29.5663 29.6421ZM36.5067 26.2732C35.1229 26.2732 33.6828 26.6432 32.5074 27.0876C31.921 27.3093 31.4044 27.5481 30.9983 27.7652C30.5869 27.9852 30.3036 28.1753 30.1724 28.2964C29.778 28.6605 29.1084 28.7053 28.546 28.5391C27.9724 28.3697 27.4092 27.9522 27.267 27.2698C27.1914 26.9067 26.9433 26.664 26.6323 26.5043C26.3291 26.3486 25.9878 26.2848 25.7619 26.2742C25.335 26.3562 24.8261 26.5862 24.2724 26.9224C23.7111 27.2632 23.1192 27.7036 22.5419 28.1815C21.4701 29.0687 20.4611 30.0746 19.8085 30.7852C19.9954 30.9909 20.1802 31.2094 20.3614 31.4408H21.937C22.0116 31.2847 22.1248 31.0932 22.2552 30.8883C22.4404 30.5973 22.6757 30.2556 22.9268 29.9044C23.4291 29.2015 24.0003 28.452 24.3731 27.976C24.4538 27.873 24.6029 27.8549 24.7059 27.9356C24.8089 28.0163 24.827 28.1654 24.7463 28.2684C24.3764 28.7406 23.8097 29.4844 23.3125 30.1801C23.0638 30.5281 22.8339 30.8621 22.6552 31.1429C22.5844 31.2542 22.5238 31.354 22.4739 31.4408H27.4501C27.7209 30.7439 28.3247 29.9801 29.348 29.2126C31.8373 27.3456 34.6936 27.2324 35.8329 27.414C35.9622 27.4346 36.0503 27.5561 36.0297 27.6854C36.0091 27.8147 35.8875 27.9028 35.7583 27.8822C34.7813 27.7264 32.3284 27.8063 30.0759 29.2809C30.4372 29.4261 30.7424 29.6915 30.978 29.9818C31.3326 30.4187 31.5675 30.9563 31.6216 31.3621C31.6494 31.5711 31.6233 31.8282 31.5489 32.0943L31.6597 32.1622C35.9826 32.8451 38.7499 31.2517 39.5333 30.0767C39.8886 29.5436 39.8338 28.6072 39.3048 27.7687C38.787 26.9479 37.8401 26.2732 36.5067 26.2732ZM15.7417 28.8333C14.9266 28.8333 14.3169 29.1605 14.134 29.3042C14.1233 29.3126 14.1119 29.32 14.0999 29.3265C13.3439 29.7336 12.7243 30.4528 12.3885 30.9353C13.9618 31.1928 17.089 31.5697 19.7533 31.4654L19.3112 30.9458C18.6411 30.2375 17.9541 29.7065 17.3281 29.3539C16.6966 28.9982 16.1442 28.8333 15.7417 28.8333ZM11.7593 28.1696C11.0828 28.1696 10.4173 28.5315 9.84491 29.0196C9.38675 29.4104 9.00794 29.8654 8.75571 30.2287C9.95727 30.6398 11.2387 30.816 11.8678 30.863C12.1662 30.3886 12.8257 29.5449 13.6871 29.0172C13.4979 28.6866 12.9567 28.1696 11.7593 28.1696ZM27.4305 26.5412C27.5703 26.7125 27.6786 26.921 27.7311 27.1731C27.826 27.6285 28.2109 27.9458 28.6803 28.0845C29.1609 28.2265 29.6291 28.1528 29.851 27.948C30.028 27.7846 30.3551 27.5717 30.7748 27.3473C31.0127 27.22 31.2851 27.0865 31.585 26.9535C31.3716 26.9728 31.1606 26.9844 30.9599 26.9844C29.9668 26.9844 29.0499 26.8278 28.6917 26.7442C28.2428 26.6939 27.8229 26.6255 27.4305 26.5412ZM26.7644 21.8844C26.858 21.7929 27.0081 21.7945 27.0996 21.8881C27.4234 22.2193 28.0023 22.6257 28.6715 22.7666C29.3252 22.9042 30.0756 22.7926 30.7923 22.0759C30.8849 21.9833 31.0349 21.9833 31.1275 22.0759C31.22 22.1685 31.22 22.3185 31.1275 22.4111C30.2892 23.2494 29.3724 23.3986 28.5738 23.2305C27.7907 23.0656 27.1322 22.5996 26.7607 22.2196C26.6692 22.126 26.6708 21.9759 26.7644 21.8844ZM39.4179 21.2915C39.7537 21.1766 40.0937 21.1987 40.3118 21.2556C40.4385 21.2886 40.5144 21.4181 40.4814 21.5448C40.4483 21.6714 40.3189 21.7474 40.1922 21.7143C40.0469 21.6764 39.8037 21.6606 39.5714 21.7401C39.3501 21.8158 39.1305 21.9796 39.0051 22.3245C38.9604 22.4476 38.8243 22.511 38.7013 22.4663C38.5783 22.4215 38.5148 22.2855 38.5595 22.1625C38.7376 21.673 39.0711 21.4102 39.4179 21.2915ZM33.2906 15.7486C33.5632 15.7574 33.9986 15.8295 34.4518 16.0136C34.906 16.198 35.3935 16.5012 35.7492 16.9824C35.827 17.0877 35.8047 17.2362 35.6995 17.314C35.5942 17.3918 35.4457 17.3696 35.3679 17.2643C35.0788 16.8732 34.6734 16.6153 34.2735 16.4529C33.8726 16.2901 33.4925 16.2295 33.2752 16.2225C33.1444 16.2182 33.0417 16.1087 33.046 15.9779C33.0502 15.847 33.1598 15.7444 33.2906 15.7486ZM26.0746 15.7692C26.5698 15.5473 27.8356 15.2391 29.0182 15.7692C29.1377 15.8228 29.1911 15.963 29.1376 16.0825C29.0841 16.2019 28.9438 16.2554 28.8244 16.2018C27.8073 15.7459 26.69 16.0129 26.2685 16.2018C26.1491 16.2554 26.0088 16.2019 25.9553 16.0825C25.9017 15.963 25.9552 15.8228 26.0746 15.7692ZM21.004 19.636C21.004 20.3455 21.2251 20.7805 21.4361 21.0011C21.5438 21.1137 21.6423 21.1643 21.7031 21.1791C21.7135 21.1816 21.7215 21.1828 21.7276 21.1836C21.8021 21.0871 21.907 21.0274 22.0305 21.0224C22.1483 21.0177 22.2508 21.0646 22.3228 21.1087C22.468 21.1979 22.5938 21.342 22.6654 21.4403C22.6964 21.483 22.7124 21.5349 22.7107 21.5877C22.6684 22.8423 23.7251 25.6727 28.641 26.2612L28.7579 26.2747L28.7723 26.2768C28.7771 26.2776 28.7819 26.2786 28.7866 26.2797C29.1031 26.3551 29.9948 26.5103 30.9599 26.5103C31.9107 26.5103 33.1392 26.2344 33.6406 26.0938C34.1348 25.9313 34.9041 25.6227 35.6029 25.2267C35.9533 25.0282 36.2805 24.8107 36.545 24.5825C36.8119 24.3523 37.001 24.123 37.0948 23.9043L37.1044 23.8844C37.1565 23.7884 37.2687 23.7396 37.3758 23.7692C37.7277 23.8665 38.301 23.9614 38.8619 23.9281C39.431 23.8943 39.9295 23.7327 40.2076 23.3774C40.6144 22.8576 40.9424 22.1443 40.9692 21.5264C40.9825 21.2216 40.9221 20.9542 40.7779 20.7413C40.6355 20.5311 40.3949 20.3498 40.001 20.2443C39.7861 20.1867 39.6362 20.1571 39.5312 20.1474C39.457 20.1406 39.4192 20.1452 39.403 20.1487C39.4024 20.1504 39.4017 20.1523 39.4011 20.1545C39.3896 20.1926 39.3836 20.2478 39.3739 20.3527C39.3558 20.5483 39.3297 20.8342 39.1673 21.156C39.0045 21.4787 38.7151 21.8188 38.2016 22.157C38.1301 22.2041 38.0389 22.2089 37.9628 22.1698C37.8867 22.1306 37.8376 22.0535 37.8343 21.968L37.6939 18.2711L36.4821 15.7076C36.4753 15.6933 36.47 15.6784 36.4662 15.663L35.6099 12.1928H26.3977L22.8176 15.0844L22.02 17.3885L22.4941 18.2934C22.5362 18.3738 22.5286 18.4713 22.4746 18.5443C22.4206 18.6173 22.3296 18.6531 22.2404 18.6364C22.0212 18.5953 21.7011 18.6031 21.4473 18.7382C21.2155 18.8616 21.004 19.1086 21.004 19.636Z" fill="var(--fill-0, #35201F)" id="Vector 2208 (Stroke)"/>
<path d="M32.8758 19.0872C33.549 19.0716 34.412 19.4438 35.4975 20.4323C35.633 20.5557 35.6428 20.7656 35.5194 20.9011C35.396 21.0366 35.1861 21.0465 35.0506 20.9231C34.0122 19.9774 33.3106 19.741 32.8911 19.7507C32.4979 19.7598 32.2939 19.9877 32.2168 20.1832C32.1495 20.3537 31.9567 20.4373 31.7862 20.37C31.6157 20.3027 31.5321 20.11 31.5993 19.9395C31.7592 19.5346 32.1763 19.1034 32.8758 19.0872ZM25.2543 17.9874C25.8676 17.9105 26.5279 18.1502 27.1008 18.914C27.2107 19.0607 27.181 19.2687 27.0344 19.3787C26.8878 19.4886 26.6798 19.4589 26.5698 19.3123C26.1187 18.7108 25.6806 18.6028 25.337 18.646C24.9609 18.6932 24.6207 18.932 24.4263 19.1465C24.3033 19.2823 24.0933 19.2926 23.9575 19.1695C23.8217 19.0464 23.8114 18.8365 23.9345 18.7007C24.1984 18.4095 24.6736 18.0603 25.2543 17.9874Z" fill="var(--fill-0, #35201F)" id="Vector 2211 (Stroke)"/>
<g id="Vector 2210">
<path d="M25.129 26.8898C24.007 27.7178 21.5354 29.6565 20.6252 30.7868L20.0563 30.5877C21.2257 29.4657 23.8774 27.1553 25.129 26.8898Z" fill="#FDDBC0"/>
</g>
<path d="M12.2335 27.5012C14.5871 26.9258 16.8884 26.8736 19.1523 26.8736L19.1523 26.246C17.3644 26.2383 14.0118 26.377 12.2335 27.5012Z" fill="var(--fill-0, #D9D9D9)" id="Vector 2212"/>
<g id="Vector 2209">
<path d="M31.5766 31.3479C32.8039 31.2616 35.5042 31.006 36.4861 30.6745C37.7135 30.26 39.6057 29.1721 38.9408 27.9806C39.5545 28.6886 40.2296 30.3015 38.0203 31.0889C35.2587 32.0732 33.4176 32.2286 31.73 32.125L31.5766 31.3479Z" fill="#C9844D"/>
</g>
<path d="M35.8434 22.2435C35.8434 22.6887 35.2703 23.0495 34.5634 23.0495C33.8564 23.0495 33.2833 22.6887 33.2833 22.2435C33.2833 21.7984 33.8564 21.4376 34.5634 21.4376C35.2703 21.4376 35.8434 21.7984 35.8434 22.2435Z" fill="var(--fill-0, #F2AB95)" id="Ellipse 510"/>
<path d="M25.5759 20.8952C25.4846 21.3309 24.8497 21.5665 24.1578 21.4216C23.4659 21.2766 22.979 20.8059 23.0703 20.3702C23.1616 19.9346 23.7965 19.6989 24.4884 19.8439C25.1803 19.9889 25.6672 20.4596 25.5759 20.8952Z" fill="var(--fill-0, #F2AB95)" id="Ellipse 511"/>
</g>
</g>
<g id="Group 100">
<path d="M38.6249 8.25C38.6562 7.34375 38.5968 5.4375 38.1093 5.0625C39.0624 5.64062 40.8093 7.24687 40.1718 9.04687C40.8124 8.54687 42.3468 8.00625 43.3593 9.84375C42.8905 9.75 41.7749 9.66562 41.0624 10.0781C42.0367 10.6094 43.9853 12.3656 43.9853 15.1406C43.9853 18.6094 42.0468 20.8125 41.4843 21.1875C41.1405 20.7344 40.3593 19.8469 39.9843 19.9219C39.5155 20.0156 38.578 22.0781 37.3124 22.125C37.3905 21.6406 37.5468 20.3062 37.5468 18.8437C37.5468 17.0156 34.6874 17.2031 35.6718 12.375C35.1406 13.5625 33.3656 16.0219 30.5156 16.3594C31.2812 15.6562 32.8687 13.9406 33.0937 12.7031C32.0156 14.0625 29.2125 16.6031 26.625 15.8906L29.6718 12.0937C27.5 12.9062 23.1281 15.1969 23.0156 17.8594V19.7812C22.4375 17.8125 21.9375 13.2937 24.5625 10.9687C23.5781 11.6094 21.8062 14.0812 22.5937 18.8437C22.0625 18.7031 21 17.6344 21 14.4844C21 11.8448 21.9435 10.7983 22.6446 10.5009C21.8981 10.6423 20.7249 10.6026 20.0625 9.65625C20.6406 9.70312 22.0406 9.55312 23.0156 8.57812C24.2344 7.35937 26.2032 4.73437 31.875 4.73437C36.4124 4.73437 38.2655 7.07812 38.6249 8.25Z" fill="var(--fill-0, #8B5139)" id="Vector 2206"/>
<path d="M20.8125 14.4844C20.8125 12.4802 21.3501 11.3383 21.9551 10.7484C21.2534 10.7395 20.4372 10.5185 19.9089 9.76373C19.8672 9.70424 19.8637 9.62606 19.8998 9.56305C19.9359 9.50002 20.0053 9.46352 20.0777 9.46939C20.624 9.51367 21.9606 9.36784 22.883 8.44556C23.4808 7.8477 24.3 6.86225 25.6793 6.03827C27.0641 5.21096 29.008 4.54688 31.875 4.54688C35.654 4.54688 37.6349 6.15232 38.4386 7.42584C38.4299 7.11899 38.4105 6.79002 38.3753 6.47809C38.34 6.1651 38.2894 5.87564 38.2203 5.64514C38.1483 5.40474 38.0667 5.26626 37.9949 5.21109C37.9161 5.15041 37.8984 5.03868 37.9546 4.95657C38.0108 4.87446 38.1214 4.85058 38.2065 4.90219C38.7004 5.20176 39.3974 5.76507 39.892 6.49091C40.3075 7.10076 40.5903 7.84238 40.4669 8.64175C40.7924 8.47843 41.2006 8.35792 41.6363 8.38156C42.3002 8.4176 42.9907 8.78638 43.5235 9.7533C43.5587 9.81719 43.5536 9.89568 43.5105 9.95453C43.4674 10.0134 43.394 10.0419 43.3225 10.0276C43.102 9.98349 42.721 9.94033 42.3105 9.95837C42.0193 9.97118 41.7238 10.0145 41.4631 10.1034C42.5254 10.8164 44.1727 12.5451 44.1727 15.1406C44.1727 16.9107 43.678 18.3589 43.1108 19.413C42.5472 20.4604 41.9037 21.1332 41.5883 21.3435C41.5058 21.3985 41.3948 21.3798 41.3349 21.3008C41.1671 21.0797 40.8927 20.7529 40.6173 20.493C40.4791 20.3626 40.3465 20.2545 40.2312 20.1845C40.1064 20.1088 40.041 20.1018 40.0211 20.1057C40.0211 20.1057 40.0204 20.1059 40.019 20.1064C40.0176 20.1068 40.0154 20.1076 40.0127 20.1087C40.007 20.1112 39.9992 20.115 39.9892 20.1212C39.9688 20.1338 39.9432 20.1531 39.9121 20.1811C39.8492 20.2374 39.776 20.3177 39.6908 20.4195C39.606 20.5207 39.5144 20.637 39.4135 20.7643C39.3134 20.8906 39.2052 21.0263 39.0903 21.1621C38.8613 21.4327 38.5998 21.7108 38.3091 21.925C38.0185 22.1393 37.6867 22.2988 37.3194 22.3124C37.2633 22.3145 37.2092 22.2913 37.172 22.2492C37.1348 22.2072 37.1184 22.1506 37.1273 22.0952C37.204 21.6195 37.3593 20.2952 37.3593 18.8437C37.3593 18.4448 37.2068 18.1542 36.9692 17.8581C36.8479 17.707 36.7089 17.5596 36.5561 17.3936C36.4052 17.2298 36.2443 17.0513 36.0905 16.8473C35.7803 16.4358 35.501 15.9232 35.3652 15.2001C35.271 14.6989 35.2466 14.1014 35.3246 13.3718C35.0139 13.8375 34.6014 14.3486 34.0909 14.8233C33.204 15.6477 32.0124 16.3709 30.5376 16.5456C30.4568 16.5551 30.3791 16.5115 30.3452 16.4376C30.3113 16.3637 30.3289 16.2763 30.3887 16.2213C30.765 15.8758 31.3459 15.2787 31.8593 14.6168C32.1188 14.2821 32.3554 13.9377 32.5401 13.6057C31.9996 14.1548 31.3043 14.7512 30.5239 15.2334C29.3464 15.9608 27.9425 16.4479 26.5752 16.0714C26.5143 16.0547 26.466 16.0084 26.4466 15.9483C26.4272 15.8883 26.4392 15.8225 26.4787 15.7733L29.0775 12.5347C28.062 12.9689 26.7869 13.6271 25.682 14.4342C25.0015 14.9313 24.3917 15.4806 23.9467 16.0633C23.5023 16.6452 23.23 17.2503 23.2031 17.8639V19.7812C23.2031 19.8745 23.1346 19.9536 23.0423 19.9668C22.95 19.9801 22.862 19.9235 22.8357 19.8341C22.7664 19.5979 22.6983 19.326 22.6363 19.0263C22.6069 19.0332 22.5758 19.033 22.5457 19.025C22.2074 18.9355 21.7742 18.58 21.4292 17.875C21.0812 17.164 20.8125 16.0791 20.8125 14.4844ZM21.1875 14.4844C21.1875 16.0396 21.4499 17.0642 21.766 17.7101C21.9608 18.1083 22.1724 18.3562 22.3514 18.5005C21.7056 13.9268 23.4251 11.4852 24.4601 10.8116C24.5424 10.758 24.6522 10.777 24.7116 10.8551C24.7711 10.9332 24.7602 11.044 24.6867 11.1091C23.4253 12.2264 22.9037 13.8814 22.7748 15.5233C22.711 16.3357 22.7441 17.1379 22.8281 17.8581C22.8281 17.8559 22.8281 17.8537 22.8282 17.8515C22.8585 17.135 23.1746 16.4564 23.6486 15.8357C24.1228 15.2147 24.7629 14.6413 25.4608 14.1314C26.8565 13.1119 28.5086 12.3288 29.6061 11.9182C29.6852 11.8886 29.7743 11.9155 29.8238 11.9839C29.8732 12.0523 29.8709 12.1453 29.8181 12.2111L26.9587 15.7743C28.0936 15.9782 29.2744 15.5645 30.3268 14.9143C31.4639 14.2118 32.4185 13.2527 32.9468 12.5866C33.0003 12.5192 33.0927 12.4968 33.171 12.5323C33.2494 12.5678 33.2936 12.652 33.2782 12.7366C33.157 13.4033 32.6783 14.1724 32.1555 14.8466C31.8008 15.304 31.4155 15.7304 31.0828 16.0694C32.1919 15.8095 33.1139 15.2196 33.8356 14.5486C34.6827 13.7611 35.2449 12.8703 35.5007 12.2985C35.5397 12.2112 35.6382 12.1672 35.7292 12.1965C35.8202 12.2257 35.8746 12.3188 35.8555 12.4124C35.6128 13.6029 35.6098 14.4711 35.7338 15.1309C35.8572 15.7877 36.1083 16.2478 36.3899 16.6215C36.532 16.81 36.6823 16.9772 36.8319 17.1397C36.9796 17.3 37.1302 17.4596 37.2616 17.6234C37.5294 17.9571 37.7343 18.3286 37.7343 18.8437C37.7343 20.1133 37.6174 21.287 37.5342 21.903C37.7208 21.8544 37.9049 21.7573 38.0867 21.6233C38.3424 21.4347 38.5819 21.1825 38.8041 20.9199C38.9147 20.7891 39.0197 20.6575 39.1197 20.5313C39.2189 20.4061 39.3145 20.2848 39.4033 20.1787C39.4916 20.0732 39.5785 19.9766 39.6616 19.902C39.7399 19.8317 39.8373 19.7601 39.9475 19.738C40.1151 19.7045 40.2881 19.7804 40.4258 19.864C40.5733 19.9535 40.7278 20.0815 40.8747 20.2202C41.1113 20.4435 41.3432 20.709 41.5166 20.9249C41.8107 20.6698 42.3175 20.0959 42.7806 19.2354C43.3232 18.227 43.7977 16.8393 43.7977 15.1406C43.7977 12.4571 41.9098 10.7537 40.9727 10.2427C40.9132 10.2103 40.8758 10.1483 40.8749 10.0805C40.8741 10.0128 40.9098 9.94985 40.9685 9.91589C41.3624 9.68783 41.8543 9.60307 42.2941 9.58374C42.5428 9.57281 42.7817 9.58253 42.9873 9.60196C42.5529 8.99033 42.06 8.78011 41.6159 8.75601C41.0833 8.72711 40.5829 8.96382 40.2871 9.19464C40.2215 9.24591 40.1298 9.24774 40.0622 9.19904C39.9946 9.15033 39.9673 9.0628 39.9951 8.98425C40.2867 8.16082 40.0389 7.37238 39.5821 6.70203C39.3021 6.29116 38.949 5.93386 38.612 5.65448C38.6729 5.88975 38.7167 6.15933 38.748 6.43597C38.8211 7.08431 38.8282 7.7971 38.8123 8.2565C38.8091 8.34801 38.7403 8.42383 38.6495 8.43585C38.5587 8.44787 38.4725 8.3925 38.4457 8.30493C38.1138 7.223 36.3423 4.92188 31.875 4.92188C29.0703 4.92188 27.1938 5.5703 25.8716 6.36017C24.5439 7.15336 23.7691 8.0898 23.1482 8.71069C22.3141 9.54476 21.1931 9.80341 20.4743 9.84485C21.0834 10.4069 21.9643 10.4353 22.5927 10.3196C22.7376 10.2606 22.8768 10.228 23.0025 10.2192C23.0967 10.2126 23.1811 10.2772 23.1995 10.3698C23.2178 10.4624 23.1645 10.5543 23.0749 10.5841C22.9675 10.6199 22.841 10.6534 22.701 10.6808C22.0966 10.9477 21.1875 11.9087 21.1875 14.4844Z" fill="var(--fill-0, #35201F)" id="Vector 2206 (Stroke)"/>
<g id="Vector 2207">
<path d="M39.1874 12.7031C39.1093 13.1875 39.1124 14.1563 39.7499 14.1563C40.5468 14.1563 39.7499 12.7031 39.1874 12.7031Z" fill="var(--fill-0, #E6B49D)"/>
<path d="M40.4531 12.4688C40.5781 12.625 40.8281 13.0875 40.8281 13.6875C40.8281 14.4375 41.7188 11.7656 40.4531 12.4688Z" fill="var(--fill-0, #E6B49D)"/>
<path d="M30.6562 9.79689C29.9844 10.0469 28.8281 10.5938 29.5781 10.7813C30.5156 11.0156 31.4062 9.65627 30.6562 9.79689Z" fill="var(--fill-0, #E6B49D)"/>
<path d="M26.7187 9.42192L28.5469 8.01567C29.7656 6.84379 25.5937 6.98442 25.3594 8.81254C25.1719 10.275 26.1875 9.82817 26.7187 9.42192Z" fill="var(--fill-0, #E6B49D)"/>
<path d="M28.7344 8.90629C28.3281 9.14067 27.5625 9.68442 27.75 9.98442C27.9844 10.3594 29.7188 8.90629 28.7344 8.90629Z" fill="var(--fill-0, #E6B49D)"/>
<path d="M31.6875 5.95317C34.4531 5.57812 36.7969 7.14067 37.4531 7.73442C35.3438 4.68757 29.5781 4.45309 25.9688 6.89067C23.8989 8.28852 21.9063 9.6094 20.9062 9.79689C21.375 9.90628 22.7812 10.0855 24.4219 8.90629C27.4219 6.75004 27.9251 6.46339 31.6875 5.95317Z" fill="var(--fill-0, #E6B49D)"/>
<path d="M23.2031 11.0625C22.6094 11.4219 21.4969 13.0125 21.7969 16.5C21.4219 15.0469 21.1781 11.925 23.2031 11.0625Z" fill="var(--fill-0, #E6B49D)"/>
</g>
</g>
<path d="M7.1966 48.3776C7.86082 48.0454 8.91572 47.7015 9.88028 47.8357C10.3756 47.9047 10.8675 48.1035 11.2538 48.5145C11.6392 48.9246 11.8781 49.502 11.9509 50.2515C11.9531 50.274 11.9536 50.2966 11.9526 50.3191C11.9186 51.0324 11.3659 52.1037 9.87369 52.6459C9.9786 53.7053 10.2412 55.0957 10.718 56.2154C10.9855 56.8435 11.3049 57.349 11.6688 57.67C12.0177 57.9777 12.4017 58.1141 12.8604 58.0377C13.1158 57.9951 13.3573 58.1676 13.3998 58.4229C13.4424 58.6783 13.2699 58.9198 13.0146 58.9623C12.2358 59.0921 11.5752 58.8375 11.0486 58.373C10.5369 57.9217 10.1497 57.2736 9.85547 56.5827C9.35275 55.4022 9.07628 53.9875 8.95606 52.8855C8.78855 52.9145 8.61291 52.9379 8.4288 52.9552L7.86676 55.9156C7.81847 56.1699 7.57315 56.3369 7.31882 56.2886C7.06448 56.2403 6.89745 55.995 6.94574 55.7407L8.23297 48.9611C8.00971 49.036 7.79967 49.1242 7.61591 49.2161C7.38437 49.3319 7.10282 49.238 6.98703 49.0065C6.87125 48.775 6.96504 48.4933 7.1966 48.3776ZM18.7202 50.6721C18.8977 50.6786 19.0563 50.7849 19.1299 50.9466L20.4266 53.7995L22.3008 51.0633L22.3118 51.0479C22.4282 50.8917 22.63 50.8233 22.8183 50.878C23.0127 50.9346 23.1489 51.1095 23.156 51.3118L23.3904 58.0618C23.3993 58.3205 23.1969 58.5376 22.9382 58.5466C22.6795 58.5556 22.4624 58.3531 22.4534 58.0944L22.2685 52.7692L20.7305 55.0149C20.6349 55.1544 20.4715 55.2317 20.303 55.217C20.1345 55.2023 19.987 55.098 19.917 54.944L18.835 52.5635C18.7647 53.0329 18.7029 53.5858 18.6497 54.1702C18.5273 55.5145 18.4526 56.998 18.4216 57.9527C18.4132 58.2114 18.1967 58.4144 17.9379 58.406C17.6792 58.3976 17.4763 58.181 17.4847 57.9223C17.5161 56.9551 17.5915 55.4526 17.716 54.0852C17.7782 53.4021 17.8532 52.7459 17.9423 52.2043C18.0273 51.6882 18.1354 51.2025 18.2916 50.9161C18.3767 50.7602 18.5426 50.6657 18.7202 50.6721ZM24.6923 50.6791C25.3635 49.0684 27.8295 49.4329 28.074 51.2661C28.1757 52.0291 27.7891 52.679 27.3664 53.1393C27.3646 53.1413 27.3626 53.1432 27.3608 53.1452C27.7421 53.2171 28.0608 53.3691 28.32 53.5842C28.8705 54.0409 29.0526 54.7004 29.0624 55.1619C29.0627 55.1754 29.0624 55.189 29.0615 55.2025C28.9756 56.5126 28.3178 57.3432 27.5273 57.8243C26.7601 58.2913 25.8825 58.4236 25.2984 58.4061C25.0499 58.3986 24.8505 58.1984 24.8439 57.9499L24.6564 50.8718C24.6547 50.8058 24.6669 50.7401 24.6923 50.6791ZM14.4636 50.0422C14.6522 49.8986 14.913 49.7776 15.2131 49.8333L15.2423 49.8393L15.2704 49.8461C15.5575 49.9202 15.7472 50.1308 15.8677 50.3304C15.994 50.5395 16.0829 50.7975 16.1491 51.0677C16.2821 51.6112 16.3485 52.3141 16.3755 53.0536C16.3867 53.3604 16.391 53.6777 16.3901 53.9983C16.4427 53.9994 16.4949 54 16.5469 54C16.8058 54 17.0156 54.2099 17.0156 54.4687C17.0156 54.7276 16.8058 54.9375 16.5469 54.9375C16.4893 54.9375 16.4315 54.9368 16.3734 54.9357C16.3445 55.8548 16.2821 56.7413 16.2166 57.42C16.1917 57.6777 15.9626 57.8664 15.705 57.8415C15.4473 57.8167 15.2586 57.5876 15.2834 57.3299C15.3484 56.6572 15.4097 55.7792 15.4373 54.8755C14.6869 54.7973 13.9472 54.6551 13.3294 54.5088C13.0688 55.3361 12.8461 56.1488 12.6895 56.784C12.6275 57.0354 12.3736 57.1889 12.1222 57.127C11.8709 57.065 11.7173 56.8111 11.7793 56.5597C11.9364 55.9221 12.1593 55.1061 12.4221 54.2685C12.2939 54.2305 12.181 54.195 12.0862 54.1634C11.8406 54.0815 11.7078 53.8161 11.7897 53.5705C11.8716 53.3249 12.137 53.1922 12.3826 53.2741C12.4758 53.3051 12.5877 53.3401 12.7151 53.3776C12.8313 53.0413 12.9525 52.7105 13.077 52.3956C13.3466 51.7139 13.6415 51.0809 13.9469 50.6251C14.0984 50.399 14.2699 50.1896 14.4636 50.0422ZM30.1761 49.2188C30.4349 49.2126 30.6499 49.4173 30.6562 49.6761C30.6794 50.638 30.7446 52.1565 30.8643 53.581C30.9242 54.2936 30.9974 54.9772 31.0847 55.5534C31.1363 55.8936 31.1911 56.1835 31.2473 56.4148C31.7442 56.2503 32.4117 55.9923 32.8391 55.7158C33.0565 55.5752 33.3467 55.6374 33.4873 55.8548C33.6279 56.0721 33.5657 56.3623 33.3484 56.503C32.6474 56.9565 31.5233 57.3247 31.0622 57.4519C30.833 57.5151 30.5927 57.3967 30.5032 57.1764C30.3587 56.8208 30.2476 56.2868 30.1577 55.6939C30.0661 55.0893 29.991 54.383 29.9301 53.6596C29.8085 52.2122 29.7425 50.6745 29.7189 49.6988C29.7127 49.44 29.9173 49.2251 30.1761 49.2188ZM27.7213 54.3057C27.4579 54.0871 26.9446 53.8971 25.9528 54.1706C25.8605 54.1961 25.7666 54.1919 25.6814 54.1638L25.7683 57.447C26.1639 57.3995 26.6296 57.2732 27.0399 57.0235C27.5906 56.6884 28.0545 56.1267 28.1242 55.1634C28.1138 54.8926 27.9996 54.5366 27.7213 54.3057ZM36.4063 47.6244C36.6396 47.5123 36.9196 47.6105 37.0318 47.8438C37.144 48.0771 37.0458 48.3571 36.8124 48.4693L34.6599 49.5041C34.7203 50.3961 34.8015 51.1969 34.893 51.9047L36.1037 51.2447C36.331 51.1208 36.6157 51.2046 36.7397 51.4318C36.8636 51.6591 36.7798 51.9438 36.5525 52.0678L35.0362 52.8942C35.2009 53.9143 35.3786 54.6686 35.5192 55.154L37.233 54.2424C37.4616 54.1209 37.7454 54.2076 37.8669 54.4362C37.9885 54.6647 37.9018 54.9485 37.6732 55.0701L35.4701 56.2419C35.3529 56.3043 35.2147 56.314 35.0899 56.2687C34.9651 56.2233 34.8653 56.1271 34.8155 56.004C34.6252 55.5339 34.3158 54.4203 34.0588 52.7103C33.9143 51.7485 33.7855 50.5924 33.704 49.2471C33.6924 49.057 33.7972 48.8788 33.9688 48.7963L36.4063 47.6244ZM15.0314 50.7881C14.9555 50.8459 14.8514 50.9593 14.7257 51.1469C14.4767 51.5187 14.2109 52.0775 13.9488 52.7403C13.838 53.0206 13.7296 53.3149 13.625 53.6151C14.1706 53.7417 14.8087 53.8629 15.4527 53.9343C15.4529 53.6465 15.4486 53.3623 15.4386 53.0878C15.4124 52.369 15.3487 51.7412 15.2384 51.2906C15.1829 51.0637 15.1218 50.9087 15.0652 50.815C15.0567 50.801 15.0491 50.7896 15.0424 50.7803C15.039 50.7827 15.0352 50.7852 15.0314 50.7881ZM27.1447 51.3901C27.0197 50.4525 25.9233 50.4031 25.5966 50.9618L25.6579 53.2791C25.9455 53.1294 26.3552 52.8543 26.6758 52.5052C27.0172 52.1335 27.193 51.7521 27.1447 51.3901ZM9.75101 48.7643C9.58346 48.7409 9.40683 48.7381 9.22705 48.7513L8.612 51.9904C8.84663 51.9578 9.05891 51.9139 9.25067 51.8611C10.6373 51.4798 10.9806 50.6467 11.0139 50.3048C10.9518 49.7266 10.7748 49.3738 10.5706 49.1566C10.3629 48.9356 10.0861 48.8109 9.75101 48.7643Z" fill="var(--fill-0, #35201F)" id="Vector 2212 (Stroke)"/>
</g>
</g>
</svg>