<?xml version="1.0" encoding="utf-8"?>
<svg xmlns="http://www.w3.org/2000/svg" fill="none" height="100%" overflow="visible" preserveAspectRatio="xMidYMid meet" style="display: block;" viewBox="0 0 384.975 463.601" width="100%">
<g id="Group 104">
<g id="Group 101">
<path d="M335.385 218.914C317.898 218.914 308.741 225.439 306.349 228.702C306.349 243.84 304.609 269.809 303.739 280.901C305.914 270.027 314.766 248.277 332.775 248.277C350.784 248.277 353.981 264.371 353.329 272.419C353.329 315.223 313.091 339.191 292.973 345.825L282.859 382.039C357.244 356.918 380.734 309.611 380.734 272.419C380.734 235.227 357.244 218.914 335.385 218.914Z" fill="#DBB89E" id="Vector 2196"/>
<path d="M376.493 272.419C376.493 254.752 370.938 242.508 363.236 234.697C355.495 226.846 345.277 223.155 335.385 223.155C320.883 223.155 313.194 227.895 310.583 230.328C310.527 237.931 310.098 247.76 309.576 257.063C314.725 250.093 322.339 244.035 332.775 244.035C343.321 244.035 349.991 248.887 353.702 255.174C357.192 261.086 357.912 267.959 357.569 272.584C357.517 295.362 346.763 313.035 333.645 325.733C321.412 337.575 306.935 345.293 296.461 349.102L289.147 375.29C355.959 350.124 376.493 306.29 376.493 272.419ZM384.975 272.419C384.975 311.673 360.083 360.435 284.216 386.057L276.616 388.624L289.496 342.505L291.645 341.797C301.188 338.651 315.695 331.303 327.746 319.639C339.745 308.023 349.088 292.365 349.088 272.419V272.248L349.102 272.076C349.379 268.654 348.801 263.557 346.397 259.486C344.171 255.713 340.238 252.518 332.775 252.518C325.711 252.518 320.122 256.732 315.799 262.935C311.474 269.142 308.901 276.718 307.898 281.733L299.51 280.57C300.381 269.476 302.108 243.655 302.108 228.701V227.313L302.929 226.193C306.35 221.529 316.988 214.673 335.385 214.673C347.352 214.673 359.809 219.139 369.277 228.742C378.785 238.385 384.975 252.893 384.975 272.419Z" fill="#35201F" id="Vector 2196 (Stroke)"/>
<path d="M285.795 437.175C285.795 451.77 227.66 463.601 155.948 463.601C84.2348 463.601 26.1001 451.77 26.1001 437.175C26.1001 422.58 84.2348 410.749 155.948 410.749C227.66 410.749 285.795 422.58 285.795 437.175Z" fill="#DDC5BC" id="Ellipse 506"/>
<path d="M153.338 150.401C34.0606 150.401 4.24133 176.501 4.24133 189.551V258.716C4.24133 338.321 28.3838 400.635 53.5051 427.061C78.6263 453.488 218.261 465.233 257.738 427.061C289.319 396.524 302.869 302.108 305.696 258.716V187.92C304.609 175.414 272.615 150.401 153.338 150.401Z" fill="#FEFFFD" id="Vector 2195"/>
<path d="M153.338 146.16C213.212 146.16 251.544 152.431 275.2 160.455C287.027 164.466 295.358 168.973 300.89 173.499C306.34 177.957 309.509 182.813 309.922 187.553L309.938 187.736V258.855L309.929 258.992C308.503 280.871 304.381 315.56 296.629 348.676C292.752 365.236 287.946 381.497 282.072 395.607C276.224 409.652 269.186 421.892 260.686 430.11C249.946 440.495 232.858 447.128 213.547 451.038C194.107 454.974 171.822 456.266 150.094 455.524C128.36 454.782 107.022 451.998 89.4544 447.697C80.6717 445.547 72.7527 442.999 66.1638 440.096C59.6353 437.219 54.1262 433.871 50.4312 429.984C24.2861 402.48 4.57764e-05 338.932 4.57764e-05 258.716V189.551C4.57764e-05 184.67 2.74073 179.542 7.8944 174.806C13.0939 170.027 21.0958 165.296 32.6072 161.098C55.6295 152.702 93.4605 146.16 153.338 146.16ZM8.48255 258.716C8.48255 337.711 32.4815 398.79 56.5789 424.139C59.1642 426.859 63.514 429.658 69.5843 432.333C75.5942 434.981 83.0142 437.388 91.4717 439.458C108.384 443.599 129.133 446.321 150.383 447.047C171.638 447.773 193.234 446.496 211.863 442.724C230.62 438.926 245.791 432.713 254.789 424.012C262.08 416.963 268.578 405.948 274.241 392.346C279.878 378.809 284.558 363.028 288.37 346.743C295.98 314.235 300.045 280.092 301.455 258.572V188.141C301.258 186.588 299.959 183.697 295.519 180.065C291.019 176.383 283.693 172.292 272.475 168.487C250.044 160.879 212.74 154.643 153.338 154.643C93.9376 154.643 57.2201 161.151 35.5135 169.067C24.6608 173.025 17.7534 177.266 13.6344 181.052C9.46953 184.879 8.48255 187.908 8.48255 189.551V258.716Z" fill="#35201F" id="Vector 2195 (Stroke)"/>
<g id="Vector 2200">
<path d="M318.747 242.404V223.482C325.924 221.524 377.146 213.368 377.146 274.05C377.146 322.596 339.518 344.303 320.704 349.088C341.584 334.407 364.096 295.909 364.096 274.05C364.096 252.192 346.804 239.142 336.038 239.142C327.425 239.142 320.922 241.317 318.747 242.404Z" fill="#F3E0CF"/>
<path d="M118.429 229.028C77.9743 229.028 32.2993 218.261 16.313 205.864C16.313 216.956 15.5219 244.701 16.313 268.178C17.2915 297.214 31.973 388.238 48.6118 416.295C65.2505 444.353 128.543 446.637 155.622 446.637C177.285 446.637 190.313 444.462 194.119 443.374L238.163 413.033L272.093 344.194L277.966 223.482L258.391 229.028H118.429Z" fill="#F3E0CF"/>
</g>
<path d="M119.408 277.313C119.408 283.259 114.587 288.079 108.641 288.079C102.695 288.079 97.875 283.259 97.875 277.313C97.875 271.367 102.695 266.546 108.641 266.546C114.587 266.546 119.408 271.367 119.408 277.313Z" fill="#35201F" id="Ellipse 501"/>
<path d="M43.0651 307.98C43.0651 311.764 40.5819 314.831 37.5188 314.831C34.4557 314.831 31.9726 311.764 31.9726 307.98C31.9726 304.196 34.4557 301.129 37.5188 301.129C40.5819 301.129 43.0651 304.196 43.0651 307.98Z" fill="#FEFFFD" id="Ellipse 505"/>
<path d="M27.4053 242.404C25.0563 250.756 27.2966 274.377 28.7103 285.143C29.9097 295.909 40.455 293.299 38.4975 283.838C36.54 274.376 38.4975 259.369 38.4975 243.709C38.4975 228.049 30.3416 231.964 27.4053 242.404Z" fill="#FEFFFD" id="Vector 2198"/>
<path d="M106.358 301.129C106.358 305.814 99.7846 309.611 91.6763 309.611C83.5681 309.611 76.9951 305.814 76.9951 301.129C76.9951 296.444 83.5681 292.646 91.6763 292.646C99.7846 292.646 106.358 296.444 106.358 301.129Z" fill="#FEA893" id="Ellipse 503"/>
<path d="M232.29 301.129C232.29 305.814 225.717 309.611 217.609 309.611C209.501 309.611 202.928 305.814 202.928 301.129C202.928 296.444 209.501 292.646 217.609 292.646C225.717 292.646 232.29 296.444 232.29 301.129Z" fill="#FEA893" id="Ellipse 504"/>
<path d="M212.715 277.313C212.715 283.259 207.895 288.079 201.949 288.079C196.003 288.079 191.183 283.259 191.183 277.313C191.183 271.367 196.003 266.546 201.949 266.546C207.895 266.546 212.715 271.367 212.715 277.313Z" fill="#35201F" id="Ellipse 502"/>
<path d="M137.154 292.883C138.104 292.054 139.547 292.152 140.377 293.102C147.146 300.856 153.256 302.222 157.974 301.339C162.905 300.417 166.932 296.929 169.103 293.92C169.841 292.897 171.268 292.666 172.291 293.404C173.314 294.142 173.545 295.57 172.807 296.593C170.193 300.218 165.248 304.625 158.814 305.829C152.168 307.072 144.521 304.794 136.936 296.106C136.106 295.156 136.204 293.713 137.154 292.883Z" fill="#35201F" id="Vector 2197 (Stroke)"/>
<path d="M103.748 0.000198364C103.097 0.379446 102.408 0.799473 101.687 1.25861C97.401 4.60287 91.4761 13.551 91.4761 31.3202C91.4761 57.4202 124.628 61.3352 124.628 88.7402C124.628 110.664 106.14 126.15 96.8963 131.153C99.18 126.803 103.748 114.644 103.748 100.811C103.748 83.5202 70.1438 75.0377 70.1438 47.3064C70.1438 26.4109 90.0178 8.69903 101.687 1.25861C102.438 0.673147 103.138 0.259431 103.748 0.000198364Z" fill="#E6D6C9" id="Vector 2201"/>
<path d="M40.1288 89.0664C40.1288 74.1894 49.4813 64.1627 54.1576 61.0089C53.2876 62.2052 51.5476 67.2729 51.5476 77.9739C51.5476 91.3502 77.9738 96.8964 77.9738 113.209C77.9738 126.259 67.3163 138.004 61.9876 142.245C63.4013 139.744 66.2288 132.262 66.2288 122.344C66.2288 109.946 40.1288 107.663 40.1288 89.0664Z" fill="#E6D6C9" id="Vector 2202"/>
<path d="M318.746 233.922V223.482C326.837 221.655 330.667 222.503 338.321 222.503C372.251 222.503 377.145 258.826 376.166 276.987C374.535 239.468 354.308 229.354 338.321 229.354C325.532 229.354 319.943 232.399 318.746 233.922Z" fill="#FEFFFD" id="Vector 2203"/>
<path d="M302.434 259.591V194.371C291.776 205.573 270.331 226.222 256.759 226.744C243.187 227.266 228.701 226.961 223.155 226.744C221.306 230.441 215.325 237.836 206.19 237.836C209.126 238.815 216.63 239.141 223.155 232.616H255.78C261.109 231.855 272.745 228.962 276.66 223.481C280.14 288.296 266.285 423.342 183.026 445.005C202.71 444.57 242.273 438.415 254.801 425.104C286.382 394.567 299.606 302.982 302.434 259.591Z" fill="#D7B599" id="Vector 2199"/>
<path d="M29.0363 179.111C24.0881 181.043 20.1367 185.77 20.3856 190.857C20.3881 190.965 20.3916 191.073 20.397 191.183C22.4245 202.585 36.721 206.098 47.2878 209.082C58.6818 211.892 70.374 213.362 82.2329 214.461C105.706 216.538 129.453 216.935 153.338 216.956C153.635 216.956 153.932 216.957 154.228 216.956C178.088 216.909 202.179 216.788 225.87 215.172C248.165 212.42 278.236 213.99 287.609 190.969L287.603 190.991C287.631 190.902 287.656 190.801 287.675 190.701C288.221 185.822 282.99 181.823 278.291 179.764C283.11 181.425 289.16 184.408 289.273 190.911C289.259 191.062 289.237 191.222 289.207 191.374L289.201 191.396C286.822 204.328 273.567 211.228 262.275 214.807C250.613 218.548 238.486 220.461 226.51 221.916C202.508 224.703 178.226 225.39 154.233 225.439C153.935 225.439 153.637 225.439 153.338 225.439C129.257 225.403 105.243 224.427 81.4619 221.169C69.4449 219.477 57.5907 217.269 46.0051 213.521C35.4025 209.53 20.2038 205.184 18.7531 191.183C18.7585 191.058 18.7652 190.935 18.7741 190.812C19.0939 184.934 23.9444 180.497 29.0363 179.111Z" fill="#35201F" id="Vector 2204 (Stroke)"/>
<path d="M123.975 188.899C122.821 188.855 121.74 188.81 120.591 188.763C100.468 187.552 80.0544 187.45 61.7773 196.909C60.733 197.393 59.7632 197.853 58.7251 198.36C59.722 197.776 60.6522 197.239 61.6588 196.677C79.0061 185.798 100.659 184.101 120.605 183.804C121.751 183.764 122.827 183.722 123.975 183.679C123.975 185.419 123.975 187.159 123.975 188.899Z" fill="#D9D9D9" id="Vector 2205 (Stroke)"/>
<path d="M288.405 191.183C288.405 207.94 228.225 221.524 153.99 221.524C79.7547 221.524 19.575 207.94 19.575 191.183C19.575 174.426 79.7547 160.841 153.99 160.841C228.225 160.841 288.405 174.426 288.405 191.183Z" fill="#DBB89E" id="Ellipse 507"/>
<path d="M277.313 202.928C277.313 204.251 277.313 206.19 277.313 206.19C277.313 206.19 262.958 223.808 153.99 223.808C45.0225 223.808 30.6675 206.19 30.6675 206.19C30.6675 206.19 30.6675 215.901 30.6675 202.928C30.6675 189.955 85.8809 174.544 153.99 174.544C222.099 174.544 277.313 189.955 277.313 202.928Z" fill="#8B5139" id="Ellipse 508"/>
<path d="M274.05 202.928C274.05 202.511 273.823 201.63 272.486 200.276C271.172 198.945 269.072 197.462 266.107 195.909C260.196 192.813 251.45 189.746 240.415 187.04C218.39 181.637 187.824 177.806 153.99 177.806C120.156 177.806 89.5905 181.637 67.565 187.04C56.5303 189.746 47.7841 192.813 41.8728 195.909C38.9083 197.462 36.8085 198.945 35.4937 200.276C34.1567 201.63 33.93 202.511 33.93 202.928V204.698C34.4114 205.045 35.1336 205.514 36.1673 206.074C38.9251 207.568 43.8608 209.685 52.2746 211.838C69.1192 216.149 99.6507 220.545 153.99 220.545V223.808C45.0225 223.808 30.6675 206.19 30.6675 206.19C30.6675 206.19 30.6675 215.901 30.6675 202.928C30.6675 189.955 85.8809 174.544 153.99 174.544C222.099 174.544 277.313 189.955 277.313 202.928V206.19C277.313 206.19 262.958 223.808 153.99 223.808V220.545C208.329 220.545 238.861 216.149 255.705 211.838C264.119 209.685 269.055 207.568 271.813 206.074C272.847 205.514 273.569 205.045 274.05 204.698V202.928Z" fill="#35201F" id="Ellipse 508 (Stroke)"/>
<path d="M143.224 183.352C143.224 184.794 142.055 185.962 140.614 185.962C139.172 185.962 138.004 184.794 138.004 183.352C138.004 181.911 139.172 180.742 140.614 180.742C142.055 180.742 143.224 181.911 143.224 183.352Z" fill="#D9D9D9" id="Ellipse 509"/>
<g id="Group 103">
<path d="M203.273 197.045C192.451 199.421 189.305 188.356 189.085 182.526C199.644 187.542 216.582 187.036 223.731 186.156C217.792 187.476 216.802 194.075 203.273 197.045Z" fill="#FDDBC0" id="Vector 2213"/>
<g id="Group 102">
<g id="Vector 2208">
<path d="M156.418 150.193C156.088 159.982 164.337 180.55 199.974 184.509C202.283 185.059 208.619 186.159 215.482 186.159C222.345 186.159 231.1 184.18 234.62 183.19C241.659 180.88 256.53 174.413 259.697 167.021C264.867 168.451 276.393 169.793 281.145 163.722C287.084 156.132 291.044 142.576 278.835 139.304C266.626 136.033 278.505 143.924 264.977 152.833L263.987 126.766L255.408 108.618L249.138 83.2102H204.263H183.145L157.408 103.998L151.469 121.156L155.098 128.085C151.579 127.426 144.539 128.217 144.539 136.665C144.539 147.223 151.139 150.523 152.459 148.543C153.514 146.959 155.538 148.983 156.418 150.193Z" fill="#FDDBC0"/>
<path clip-rule="evenodd" d="M135.63 214.272C137.42 216.166 139.19 218.235 140.91 220.476H153.778H192.219C193.718 215.763 197.724 210.284 205.253 204.637C212.512 204.637 217.792 213.546 218.452 218.496C218.645 219.95 218.384 221.973 217.617 224.105L219.771 225.425C250.458 230.375 270.586 219.156 276.525 210.247C282.465 201.338 273.886 181.21 254.088 181.21C234.29 181.21 213.172 191.769 208.883 195.728C204.593 199.688 193.044 197.378 191.394 189.459C190.075 183.124 182.705 181.32 179.186 181.21C165.987 183.586 144.649 204.241 135.63 214.272Z" fill="#F4BA70" fill-rule="evenodd"/>
<path d="M97.3544 202.658C90.4911 206.353 85.2556 213.436 83.4958 216.516C93.9447 218.386 120.056 221.796 140.91 220.476L135.63 214.272C126.087 204.175 115.954 199.028 109.563 199.028C103.492 199.028 98.8942 201.448 97.3544 202.658Z" fill="#8B949B"/>
<path d="M81.846 194.408C71.2871 194.408 61.8281 205.627 58.4185 211.237C68.1854 214.932 79.2063 216.296 83.4958 216.516C85.2556 213.436 90.4911 206.353 97.3544 202.658C96.5844 199.908 92.4049 194.408 81.846 194.408Z" fill="#8B949B"/>
<path d="M218.452 218.496C217.792 213.546 212.512 204.637 205.253 204.637C197.724 210.284 193.718 215.763 192.219 220.476C189.512 228.982 194.969 234.994 202.613 234.994C211.003 234.994 215.772 229.233 217.617 224.105C218.384 221.973 218.645 219.95 218.452 218.496Z" fill="#FDDBC0"/>
</g>
<path d="M249.137 81.5627C249.896 81.5627 250.557 82.0806 250.739 82.8175L256.968 108.064L265.477 126.063L265.541 126.217C265.596 126.374 265.628 126.539 265.634 126.705L266.504 149.626C268.126 148.22 269.078 146.91 269.658 145.76C270.487 144.116 270.635 142.668 270.757 141.351C270.813 140.743 270.875 139.979 271.071 139.326C271.292 138.589 271.739 137.797 272.666 137.32C273.491 136.896 274.46 136.85 275.439 136.94C276.449 137.033 277.705 137.296 279.261 137.713C282.624 138.614 285.033 140.274 286.547 142.51C288.049 144.727 288.557 147.343 288.443 149.968C288.217 155.161 285.551 160.77 282.443 164.741C279.627 168.339 274.957 169.579 270.675 169.834C266.978 170.053 263.267 169.558 260.567 168.942C259.582 170.623 258.147 172.18 256.509 173.593C254.452 175.368 251.977 177.001 249.423 178.449C248.446 179.002 247.452 179.531 246.458 180.033C248.993 179.731 251.548 179.562 254.087 179.562C264.605 179.562 272.202 184.931 276.352 191.509C280.425 197.964 281.363 205.965 277.897 211.164C271.49 220.775 250.611 232.073 219.507 227.056C219.295 227.022 219.092 226.947 218.909 226.834L218.389 226.516C215.966 231.549 210.895 236.646 202.612 236.646C198.362 236.646 194.569 234.968 192.227 231.935C190.233 229.353 189.415 225.948 190.108 222.128H140.959C119.987 223.447 93.858 220.041 83.3007 218.159C78.8251 217.916 67.7258 216.525 57.8335 212.782C57.3747 212.608 57.0167 212.24 56.8571 211.776C56.6975 211.312 56.7525 210.801 57.0073 210.382C58.7895 207.45 62.1166 203.102 66.3797 199.466C70.6176 195.852 75.9949 192.761 81.8449 192.761C91.1295 192.761 96.0897 196.819 98.0796 200.236C100.521 198.892 104.594 197.38 109.562 197.38C113.15 197.38 117.568 198.806 122.223 201.428C126.514 203.845 131.108 207.336 135.592 211.865C140.222 206.838 147.278 199.818 154.788 193.602C158.881 190.214 163.134 187.042 167.223 184.56C170.52 182.557 173.782 180.958 176.814 180.08C159.839 172.083 154.754 158.827 154.759 150.754C154.414 150.348 154.002 149.951 153.64 149.729C153.637 149.727 153.634 149.726 153.632 149.724C152.733 150.792 151.328 150.869 150.273 150.612C149.088 150.324 147.875 149.562 146.811 148.449C144.649 146.189 142.888 142.288 142.888 136.667C142.888 131.891 144.936 128.99 147.723 127.506C149.2 126.719 150.808 126.37 152.288 126.281L150.006 121.924C149.795 121.521 149.76 121.049 149.909 120.619L155.848 103.461L155.889 103.353C155.995 103.105 156.16 102.886 156.37 102.717L182.107 81.9288L182.221 81.845C182.493 81.6614 182.814 81.5627 183.144 81.5627H249.137ZM205.782 206.309C198.718 211.706 195.12 216.796 193.789 220.978C192.574 224.797 193.238 227.845 194.839 229.919C196.461 232.019 199.218 233.347 202.612 233.347C210.086 233.347 214.369 228.256 216.063 223.549C216.77 221.582 216.964 219.833 216.815 218.716C216.531 216.591 215.196 213.403 213.045 210.752C211.02 208.258 208.504 206.511 205.782 206.309ZM254.087 182.862C244.455 182.862 234.432 185.437 226.252 188.53C222.17 190.073 218.575 191.735 215.748 193.246C212.885 194.778 210.913 196.1 210 196.943C207.255 199.477 202.594 199.789 198.68 198.633C194.688 197.453 190.768 194.547 189.778 189.798C189.252 187.271 187.525 185.582 185.361 184.47C183.25 183.386 180.875 182.943 179.303 182.868C176.332 183.44 172.79 185.04 168.936 187.38C165.029 189.752 160.91 192.817 156.891 196.144C149.432 202.318 142.41 209.319 137.867 214.265C139.168 215.697 140.455 217.218 141.716 218.828H152.682C153.201 217.742 153.989 216.409 154.896 214.983C156.185 212.957 157.823 210.579 159.57 208.135C163.067 203.243 167.042 198.026 169.637 194.713C170.199 193.996 171.236 193.87 171.953 194.432C172.67 194.994 172.796 196.031 172.234 196.748C169.66 200.035 165.716 205.212 162.255 210.054C160.524 212.476 158.924 214.8 157.68 216.755C157.187 217.53 156.766 218.224 156.418 218.828H191.053C192.938 213.978 197.14 208.661 204.262 203.32C221.588 190.325 241.467 189.538 249.397 190.802C250.297 190.945 250.91 191.791 250.766 192.691C250.623 193.591 249.777 194.204 248.878 194.06C242.078 192.976 225.006 193.532 209.328 203.795C211.843 204.806 213.967 206.653 215.607 208.673C218.075 211.714 219.71 215.456 220.086 218.28C220.28 219.735 220.098 221.524 219.58 223.376L220.352 223.849C250.439 228.602 269.7 217.512 275.152 209.334C277.625 205.624 277.244 199.106 273.562 193.27C269.958 187.557 263.367 182.862 254.087 182.862ZM109.562 200.68C103.889 200.68 99.6455 202.957 98.3728 203.957C98.2984 204.016 98.2189 204.068 98.1356 204.113C92.8736 206.946 88.5611 211.952 86.224 215.31C97.1744 217.102 118.939 219.726 137.483 219L134.406 215.383C129.742 210.453 124.961 206.758 120.604 204.303C116.208 201.828 112.364 200.68 109.562 200.68ZM81.8449 196.061C77.1361 196.061 72.5044 198.579 68.5206 201.977C65.3318 204.696 62.6953 207.864 60.9398 210.392C69.3026 213.253 78.2216 214.48 82.6002 214.807C84.6769 211.505 89.2668 205.633 95.262 201.96C93.9455 199.659 90.1786 196.061 81.8449 196.061ZM190.916 184.727C191.889 185.919 192.643 187.37 193.008 189.125C193.669 192.294 196.348 194.503 199.615 195.468C202.96 196.457 206.219 195.943 207.763 194.518C208.995 193.381 211.271 191.899 214.193 190.337C215.848 189.452 217.744 188.522 219.832 187.597C218.347 187.731 216.878 187.811 215.481 187.811C208.569 187.811 202.187 186.722 199.694 186.14C196.57 185.79 193.648 185.313 190.916 184.727ZM186.28 152.316C186.932 151.679 187.976 151.69 188.613 152.342C190.867 154.646 194.896 157.475 199.554 158.456C204.103 159.413 209.326 158.637 214.314 153.648C214.959 153.004 216.003 153.004 216.647 153.648C217.292 154.293 217.292 155.337 216.647 155.981C210.813 161.816 204.432 162.855 198.874 161.684C193.423 160.537 188.84 157.293 186.254 154.649C185.617 153.997 185.629 152.953 186.28 152.316ZM274.349 148.189C276.686 147.39 279.052 147.543 280.57 147.939C281.452 148.169 281.98 149.07 281.75 149.952C281.52 150.833 280.619 151.362 279.738 151.132C278.726 150.868 277.034 150.758 275.417 151.311C273.877 151.838 272.349 152.978 271.476 155.379C271.164 156.235 270.217 156.677 269.361 156.366C268.505 156.054 268.063 155.107 268.374 154.251C269.613 150.844 271.935 149.015 274.349 148.189ZM231.703 109.61C233.6 109.672 236.63 110.174 239.785 111.455C242.946 112.739 246.339 114.849 248.814 118.198C249.356 118.931 249.201 119.964 248.468 120.506C247.736 121.047 246.702 120.892 246.16 120.16C244.149 117.438 241.327 115.643 238.544 114.512C235.754 113.379 233.108 112.958 231.596 112.909C230.685 112.879 229.971 112.117 230 111.206C230.029 110.296 230.792 109.581 231.703 109.61ZM181.48 109.754C184.926 108.209 193.736 106.064 201.967 109.754C202.798 110.127 203.17 111.103 202.798 111.934C202.425 112.766 201.449 113.138 200.618 112.765C193.539 109.592 185.763 111.45 182.829 112.765C181.998 113.138 181.022 112.766 180.649 111.934C180.276 111.103 180.648 110.127 181.48 109.754ZM146.188 136.667C146.188 141.605 147.727 144.633 149.195 146.168C149.945 146.952 150.63 147.304 151.054 147.407C151.126 147.424 151.182 147.433 151.224 147.438C151.742 146.767 152.473 146.351 153.332 146.316C154.152 146.284 154.866 146.609 155.367 146.917C156.377 147.538 157.253 148.54 157.751 149.225C157.967 149.522 158.079 149.883 158.066 150.251C157.772 158.983 165.127 178.682 199.342 182.778L200.155 182.872L200.255 182.886C200.289 182.892 200.322 182.899 200.355 182.907C202.558 183.432 208.764 184.512 215.481 184.512C222.098 184.512 230.649 182.591 234.139 181.613C237.578 180.482 242.932 178.334 247.796 175.578C250.235 174.196 252.512 172.683 254.354 171.094C256.211 169.492 257.527 167.897 258.18 166.374L258.247 166.235C258.609 165.567 259.39 165.228 260.136 165.434C262.585 166.111 266.575 166.771 270.479 166.54C274.44 166.305 277.909 165.18 279.845 162.707C282.676 159.089 284.959 154.124 285.146 149.824C285.238 147.703 284.818 145.841 283.815 144.36C282.823 142.896 281.149 141.635 278.407 140.9C276.912 140.5 275.868 140.293 275.137 140.226C274.621 140.179 274.358 140.211 274.245 140.235C274.241 140.247 274.236 140.26 274.231 140.275C274.152 140.541 274.11 140.925 274.043 141.655C273.917 143.016 273.735 145.006 272.605 147.246C271.471 149.492 269.457 151.859 265.883 154.213C265.386 154.541 264.75 154.574 264.221 154.302C263.691 154.029 263.35 153.493 263.327 152.898L262.349 127.167L253.915 109.325C253.868 109.226 253.831 109.122 253.805 109.015L247.845 84.8624H183.728L158.811 104.988L153.259 121.024L156.559 127.322C156.852 127.882 156.799 128.56 156.423 129.069C156.048 129.577 155.414 129.826 154.793 129.709C153.268 129.423 151.04 129.478 149.273 130.418C147.66 131.277 146.188 132.996 146.188 136.667Z" fill="#35201F" id="Vector 2208 (Stroke)"/>
<path d="M228.815 132.847C233.501 132.739 239.508 135.329 247.063 142.209C248.006 143.068 248.074 144.529 247.215 145.472C246.357 146.415 244.896 146.484 243.952 145.625C236.725 139.043 231.842 137.398 228.922 137.465C226.185 137.529 224.766 139.115 224.229 140.476C223.76 141.662 222.418 142.244 221.232 141.775C220.046 141.307 219.463 139.966 219.931 138.779C221.044 135.961 223.947 132.96 228.815 132.847ZM175.77 125.193C180.038 124.657 184.634 126.326 188.621 131.642C189.387 132.662 189.18 134.11 188.159 134.876C187.139 135.641 185.691 135.434 184.926 134.414C181.786 130.227 178.737 129.476 176.346 129.776C173.728 130.105 171.36 131.767 170.007 133.26C169.151 134.205 167.69 134.277 166.744 133.42C165.799 132.563 165.727 131.102 166.584 130.157C168.421 128.13 171.728 125.7 175.77 125.193Z" fill="#35201F" id="Vector 2211 (Stroke)"/>
<g id="Vector 2210">
<path d="M174.898 187.153C167.089 192.916 149.887 206.41 143.551 214.276L139.592 212.89C147.731 205.081 166.187 189.001 174.898 187.153Z" fill="#FDDBC0"/>
</g>
<path d="M85.1455 191.408C101.526 187.404 117.544 187.041 133.3 187.041L133.3 182.672C120.856 182.619 97.5221 183.584 85.1455 191.408Z" fill="#D9D9D9" id="Vector 2212"/>
<g id="Vector 2209">
<path d="M219.773 218.182C228.315 217.581 247.109 215.802 253.943 213.494C262.486 210.61 275.656 203.038 271.028 194.745C275.3 199.673 279.998 210.898 264.621 216.379C245.401 223.23 232.587 224.311 220.841 223.59L219.773 218.182Z" fill="#C9844D"/>
</g>
<path d="M249.47 154.815C249.47 157.913 245.481 160.425 240.561 160.425C235.641 160.425 231.652 157.913 231.652 154.815C231.652 151.717 235.641 149.206 240.561 149.206C245.481 149.206 249.47 151.717 249.47 154.815Z" fill="#F2AB95" id="Ellipse 510"/>
<path d="M178.009 145.431C177.373 148.463 172.954 150.103 168.138 149.094C163.323 148.085 159.934 144.809 160.569 141.777C161.204 138.745 165.623 137.105 170.439 138.114C175.255 139.123 178.644 142.399 178.009 145.431Z" fill="#F2AB95" id="Ellipse 511"/>
</g>
</g>
<g id="Group 100">
<path d="M268.829 57.4202C269.047 51.1127 268.634 37.8452 265.241 35.2352C271.874 39.2589 284.033 50.4384 279.596 62.9664C284.054 59.4864 294.734 55.7237 301.781 68.5127C298.518 67.8602 290.753 67.2729 285.794 70.1439C292.575 73.8414 306.137 86.0649 306.137 105.379C306.137 129.521 292.646 144.855 288.731 147.465C286.338 144.311 280.901 138.134 278.291 138.656C275.028 139.309 268.503 153.664 259.694 153.99C260.238 150.619 261.326 141.332 261.326 131.153C261.326 118.429 241.424 119.734 248.276 86.1302C244.578 94.3952 232.225 111.512 212.389 113.861C217.717 108.968 228.766 97.0269 230.332 88.4139C222.829 97.8752 203.319 115.558 185.31 110.599L206.516 84.1727C191.4 89.8277 160.972 105.77 160.189 124.301V137.678C156.165 123.975 152.685 92.5247 170.955 76.3427C164.104 80.8014 151.771 98.0057 157.252 131.153C153.555 130.174 146.16 122.735 146.16 100.811C146.16 82.4402 152.727 75.1565 157.607 73.0863C152.411 74.0707 144.245 73.7939 139.635 67.2077C143.659 67.5339 153.402 66.4899 160.189 59.7039C168.671 51.2214 182.374 32.9514 221.85 32.9514C253.431 32.9514 266.328 49.2639 268.829 57.4202Z" fill="#8B5139" id="Vector 2206"/>
<path d="M144.855 100.811C144.855 86.8624 148.597 78.9148 152.807 74.8089C147.924 74.7471 142.243 73.2088 138.566 67.9558C138.276 67.5417 138.252 66.9976 138.503 66.559C138.754 66.1204 139.237 65.8663 139.741 65.9072C143.543 66.2153 152.846 65.2004 159.266 58.7813C163.427 54.6202 169.128 47.7615 178.728 42.0266C188.366 36.2685 201.896 31.6465 221.85 31.6465C248.152 31.6465 261.939 42.8204 267.533 51.6841C267.472 49.5484 267.337 47.2587 267.092 45.0877C266.846 42.9093 266.495 40.8946 266.014 39.2904C265.512 37.6172 264.944 36.6534 264.445 36.2694C263.896 35.847 263.773 35.0694 264.164 34.498C264.555 33.9264 265.325 33.7602 265.917 34.1195C269.355 36.2044 274.206 40.1251 277.648 45.1769C280.541 49.4215 282.508 54.5832 281.649 60.1468C283.915 59.0101 286.756 58.1713 289.788 58.3359C294.41 58.5867 299.216 61.1534 302.924 67.8831C303.169 68.3278 303.133 68.8741 302.833 69.2837C302.533 69.6934 302.022 69.8918 301.525 69.7922C299.99 69.4853 297.338 69.1849 294.481 69.3105C292.454 69.3996 290.397 69.7013 288.583 70.3198C295.977 75.2824 307.442 87.3141 307.442 105.379C307.442 117.698 303.999 127.778 300.051 135.115C296.129 142.405 291.65 147.087 289.455 148.551C288.881 148.934 288.108 148.804 287.691 148.254C286.523 146.715 284.613 144.441 282.696 142.631C281.735 141.724 280.811 140.972 280.009 140.485C279.14 139.957 278.685 139.908 278.547 139.936C278.547 139.936 278.542 139.937 278.532 139.94C278.522 139.944 278.507 139.949 278.488 139.957C278.449 139.974 278.395 140.001 278.325 140.044C278.183 140.131 278.005 140.266 277.788 140.46C277.351 140.853 276.841 141.411 276.248 142.12C275.658 142.824 275.02 143.634 274.318 144.519C273.621 145.399 272.868 146.344 272.068 147.289C270.475 149.172 268.655 151.107 266.632 152.599C264.609 154.09 262.3 155.2 259.743 155.295C259.352 155.309 258.976 155.148 258.717 154.855C258.458 154.562 258.344 154.168 258.406 153.782C258.94 150.472 260.021 141.255 260.021 131.153C260.021 128.376 258.959 126.353 257.306 124.293C256.462 123.241 255.494 122.215 254.43 121.06C253.381 119.92 252.26 118.678 251.19 117.257C249.031 114.393 247.087 110.826 246.142 105.793C245.486 102.305 245.317 98.1458 245.859 93.0681C243.697 96.309 240.826 99.8667 237.272 103.17C231.1 108.909 222.807 113.942 212.542 115.158C211.98 115.224 211.439 114.92 211.202 114.406C210.966 113.891 211.089 113.283 211.506 112.901C214.125 110.495 218.168 106.34 221.74 101.733C223.547 99.4038 225.193 97.0067 226.479 94.6955C222.717 98.5173 217.878 102.669 212.446 106.024C204.251 111.087 194.48 114.478 184.963 111.857C184.54 111.741 184.203 111.418 184.068 111C183.933 110.583 184.017 110.125 184.292 109.782L202.38 87.2415C195.311 90.2637 186.437 94.8447 178.747 100.462C174.01 103.922 169.767 107.745 166.669 111.801C163.576 115.851 161.681 120.062 161.494 124.333V137.678C161.494 138.327 161.017 138.877 160.374 138.969C159.732 139.062 159.12 138.668 158.937 138.045C158.454 136.401 157.98 134.509 157.549 132.423C157.344 132.471 157.128 132.47 156.918 132.414C154.564 131.791 151.548 129.317 149.147 124.41C146.726 119.461 144.855 111.911 144.855 100.811ZM147.465 100.811C147.465 111.636 149.292 118.767 151.492 123.263C152.848 126.034 154.32 127.759 155.566 128.764C151.071 96.9309 163.039 79.937 170.243 75.2486C170.815 74.8759 171.579 75.0083 171.993 75.5519C172.407 76.0955 172.331 76.8665 171.82 77.3195C163.04 85.096 159.41 96.6151 158.512 108.042C158.068 113.697 158.299 119.28 158.884 124.293C158.884 124.277 158.884 124.262 158.884 124.247C159.095 119.26 161.295 114.537 164.594 110.217C167.895 105.895 172.35 101.904 177.207 98.355C186.921 91.2591 198.42 85.8083 206.059 82.9505C206.609 82.7447 207.229 82.932 207.573 83.4081C207.918 83.884 207.902 84.5314 207.534 84.9896L187.633 109.789C195.531 111.209 203.75 108.329 211.075 103.804C218.989 98.9145 225.633 92.239 229.31 87.6028C229.682 87.134 230.325 86.9782 230.87 87.2249C231.416 87.4718 231.723 88.0583 231.617 88.6472C230.773 93.287 227.441 98.6398 223.802 103.332C221.334 106.516 218.652 109.483 216.336 111.843C224.056 110.034 230.473 105.929 235.496 101.259C241.392 95.7773 245.304 89.5774 247.085 85.5975C247.356 84.9901 248.042 84.6841 248.675 84.8876C249.309 85.0913 249.687 85.7389 249.555 86.3908C247.865 94.6766 247.844 100.719 248.707 105.311C249.566 109.883 251.314 113.085 253.274 115.686C254.263 116.998 255.309 118.162 256.35 119.292C257.378 120.408 258.426 121.519 259.341 122.659C261.205 124.982 262.631 127.567 262.631 131.153C262.631 139.989 261.817 148.158 261.238 152.445C262.537 152.106 263.818 151.431 265.083 150.498C266.863 149.186 268.53 147.431 270.076 145.603C270.847 144.692 271.577 143.776 272.273 142.898C272.964 142.027 273.629 141.182 274.247 140.444C274.862 139.71 275.466 139.037 276.045 138.518C276.59 138.029 277.268 137.53 278.035 137.377C279.201 137.144 280.405 137.672 281.364 138.254C282.39 138.877 283.465 139.768 284.488 140.733C286.134 142.287 287.748 144.135 288.956 145.638C291.002 143.862 294.53 139.868 297.753 133.879C301.53 126.86 304.832 117.202 304.832 105.379C304.832 86.7014 291.692 74.8462 285.17 71.2897C284.756 71.0639 284.495 70.6321 284.489 70.1605C284.483 69.689 284.733 69.2511 285.141 69.0148C287.882 67.4275 291.306 66.8376 294.367 66.703C296.098 66.6269 297.761 66.6946 299.192 66.8298C296.168 62.5729 292.738 61.1098 289.647 60.942C285.94 60.7409 282.457 62.3884 280.399 63.9949C279.941 64.3517 279.304 64.3644 278.833 64.0255C278.362 63.6865 278.172 63.0773 278.366 62.5306C280.396 56.7995 278.671 51.312 275.491 46.6463C273.543 43.7866 271.085 41.2999 268.74 39.3554C269.163 40.9929 269.468 42.8692 269.686 44.7946C270.195 49.307 270.244 54.268 270.134 57.4654C270.112 58.1024 269.633 58.63 269.001 58.7137C268.369 58.7974 267.769 58.412 267.582 57.8025C265.272 50.2723 252.943 34.2565 221.85 34.2565C202.329 34.2565 189.269 38.7695 180.066 44.267C170.825 49.7876 165.433 56.3052 161.111 60.6266C155.306 66.4317 147.504 68.232 142.501 68.5203C146.741 72.432 152.872 72.6296 157.246 71.8249C158.254 71.4137 159.223 71.1869 160.098 71.1259C160.753 71.0801 161.341 71.5293 161.468 72.1741C161.596 72.8188 161.225 73.4579 160.601 73.6658C159.854 73.9149 158.973 74.1478 157.999 74.3387C153.792 76.1959 147.465 82.8847 147.465 100.811Z" fill="#35201F" id="Vector 2206 (Stroke)"/>
<g id="Vector 2207">
<path d="M272.745 88.414C272.201 91.7852 272.223 98.5277 276.66 98.5277C282.206 98.5277 276.659 88.414 272.745 88.414Z" fill="#E6B49D"/>
<path d="M281.554 86.7827C282.424 87.8702 284.164 91.0892 284.164 95.2652C284.164 100.485 290.363 81.889 281.554 86.7827Z" fill="#E6B49D"/>
<path d="M213.367 68.1866C208.691 69.9266 200.644 73.7328 205.864 75.0378C212.389 76.6691 218.587 67.2078 213.367 68.1866Z" fill="#E6B49D"/>
<path d="M185.962 65.5767L198.686 55.7892C207.169 47.633 178.132 48.6117 176.501 61.3355C175.196 71.5145 182.265 68.4042 185.962 65.5767Z" fill="#E6B49D"/>
<path d="M199.991 61.988C197.164 63.6192 191.835 67.4037 193.14 69.4917C194.771 72.1017 206.843 61.988 199.991 61.988Z" fill="#E6B49D"/>
<path d="M220.545 41.4343C239.794 38.8239 256.106 49.6992 260.674 53.8317C245.993 32.6257 205.864 30.9937 180.743 47.9593C166.337 57.6883 152.468 66.8816 145.508 68.1866C148.77 68.9479 158.558 70.1952 169.976 61.988C190.856 46.9805 194.358 44.9854 220.545 41.4343Z" fill="#E6B49D"/>
<path d="M161.494 76.9952C157.361 79.4964 149.618 90.5672 151.706 114.84C149.096 104.726 147.4 82.9979 161.494 76.9952Z" fill="#E6B49D"/>
</g>
</g>
<path d="M50.0884 336.708C54.7113 334.396 62.0535 332.002 68.7668 332.937C72.2145 333.417 75.6377 334.8 78.3262 337.661C81.0086 340.516 82.6713 344.534 83.1785 349.751C83.1937 349.907 83.1974 350.064 83.19 350.221C82.9536 355.186 79.1069 362.642 68.7209 366.416C69.4511 373.789 71.2785 383.466 74.5972 391.259C76.459 395.631 78.6818 399.149 81.2146 401.383C83.6432 403.525 86.3157 404.474 89.5085 403.942C91.2858 403.646 92.9666 404.846 93.2629 406.624C93.5592 408.401 92.3588 410.082 90.5816 410.378C85.1615 411.281 80.5637 409.509 76.8982 406.276C73.3371 403.135 70.6418 398.624 68.5941 393.816C65.0952 385.6 63.1709 375.753 62.3342 368.083C61.1683 368.285 59.9459 368.448 58.6645 368.568L54.7527 389.172C54.4166 390.943 52.7092 392.105 50.939 391.769C49.1688 391.433 48.0063 389.726 48.3424 387.955L57.3015 340.77C55.7477 341.29 54.2857 341.905 53.0068 342.544C51.3952 343.35 49.4357 342.697 48.6298 341.086C47.824 339.474 48.4768 337.514 50.0884 336.708ZM130.292 352.678C131.528 352.723 132.632 353.463 133.144 354.589L142.169 374.445L155.213 355.4L155.29 355.293C156.1 354.206 157.505 353.73 158.816 354.111C160.169 354.505 161.117 355.722 161.166 357.13L162.797 404.11C162.859 405.911 161.45 407.422 159.65 407.484C157.849 407.547 156.338 406.138 156.276 404.337L154.989 367.274L144.284 382.904C143.619 383.875 142.482 384.413 141.309 384.311C140.136 384.208 139.11 383.482 138.623 382.41L131.091 365.842C130.602 369.109 130.172 372.957 129.802 377.025C128.95 386.381 128.43 396.706 128.214 403.351C128.156 405.152 126.649 406.564 124.848 406.506C123.047 406.447 121.635 404.94 121.693 403.139C121.912 396.408 122.437 385.95 123.303 376.433C123.736 371.679 124.258 367.112 124.879 363.342C125.47 359.75 126.222 356.37 127.31 354.376C127.902 353.291 129.057 352.633 130.292 352.678ZM171.859 352.727C176.53 341.516 193.694 344.053 195.395 356.813C196.103 362.123 193.412 366.646 190.47 369.85C190.458 369.864 190.444 369.877 190.431 369.891C193.085 370.391 195.304 371.449 197.107 372.946C200.939 376.125 202.206 380.715 202.274 383.927C202.276 384.021 202.274 384.116 202.268 384.21C201.67 393.328 197.092 399.109 191.59 402.458C186.251 405.708 180.142 406.629 176.077 406.506C174.348 406.454 172.96 405.061 172.914 403.332L171.609 354.068C171.597 353.608 171.682 353.151 171.859 352.727ZM100.667 348.294C101.979 347.295 103.794 346.453 105.883 346.84L106.087 346.882L106.282 346.929C108.281 347.445 109.6 348.91 110.439 350.3C111.318 351.755 111.937 353.551 112.398 355.431C113.324 359.214 113.786 364.107 113.973 369.253C114.051 371.388 114.081 373.597 114.075 375.829C114.441 375.836 114.805 375.84 115.166 375.84C116.968 375.84 118.429 377.301 118.429 379.103C118.429 380.904 116.968 382.365 115.166 382.365C114.766 382.365 114.363 382.36 113.959 382.352C113.758 388.749 113.323 394.92 112.867 399.644C112.694 401.437 111.1 402.751 109.307 402.577C107.513 402.404 106.2 400.81 106.373 399.017C106.825 394.335 107.252 388.224 107.444 381.934C102.221 381.389 97.0724 380.4 92.7729 379.381C90.9587 385.14 89.4087 390.795 88.3189 395.217C87.8877 396.966 86.1201 398.035 84.3707 397.604C82.6213 397.173 81.5526 395.405 81.9837 393.656C83.0776 389.218 84.6287 383.538 86.4576 377.709C85.5654 377.445 84.7799 377.198 84.1197 376.978C82.4103 376.408 81.4866 374.56 82.0564 372.851C82.6262 371.142 84.4736 370.218 86.1829 370.788C86.8318 371.004 87.6102 371.248 88.4973 371.508C89.3059 369.168 90.1495 366.865 91.0162 364.674C92.8923 359.929 94.9449 355.523 97.0703 352.351C98.1247 350.777 99.3186 349.32 100.667 348.294ZM210.026 342.563C211.827 342.52 213.323 343.945 213.367 345.746C213.529 352.441 213.983 363.01 214.816 372.924C215.233 377.883 215.742 382.641 216.35 386.652C216.709 389.019 217.09 391.037 217.481 392.647C220.94 391.502 225.586 389.707 228.56 387.782C230.073 386.803 232.093 387.237 233.072 388.749C234.05 390.262 233.617 392.282 232.105 393.261C227.226 396.418 219.402 398.98 216.193 399.865C214.598 400.305 212.925 399.481 212.302 397.948C211.297 395.473 210.523 391.756 209.898 387.63C209.26 383.421 208.737 378.506 208.314 373.471C207.467 363.397 207.008 352.695 206.844 345.904C206.8 344.103 208.225 342.607 210.026 342.563ZM192.941 377.968C191.107 376.446 187.535 375.124 180.632 377.028C179.989 377.205 179.335 377.176 178.742 376.98L179.348 399.832C182.101 399.501 185.342 398.622 188.198 396.884C192.03 394.551 195.26 390.642 195.744 383.937C195.672 382.052 194.877 379.575 192.941 377.968ZM253.388 331.466C255.012 330.686 256.961 331.369 257.741 332.993C258.522 334.617 257.838 336.566 256.215 337.346L241.233 344.549C241.653 350.757 242.219 356.33 242.856 361.257L251.282 356.663C252.864 355.801 254.846 356.384 255.708 357.966C256.57 359.548 255.987 361.529 254.406 362.392L243.852 368.144C244.998 375.244 246.235 380.493 247.213 383.872L259.142 377.527C260.733 376.681 262.708 377.285 263.554 378.876C264.4 380.467 263.796 382.442 262.206 383.288L246.872 391.444C246.056 391.878 245.094 391.946 244.226 391.63C243.357 391.314 242.663 390.645 242.316 389.788C240.992 386.516 238.838 378.765 237.049 366.864C236.043 360.17 235.147 352.123 234.58 342.76C234.499 341.437 235.228 340.197 236.423 339.623L253.388 331.466ZM104.619 353.486C104.09 353.888 103.366 354.677 102.491 355.983C100.758 358.57 98.9077 362.46 97.0836 367.073C96.3123 369.023 95.5579 371.072 94.8298 373.161C98.6271 374.042 103.068 374.886 107.551 375.383C107.552 373.38 107.523 371.402 107.453 369.491C107.271 364.489 106.827 360.119 106.059 356.983C105.673 355.403 105.248 354.324 104.854 353.672C104.795 353.575 104.741 353.496 104.695 353.431C104.671 353.448 104.645 353.465 104.619 353.486ZM188.927 357.675C188.057 351.149 180.426 350.806 178.152 354.694L178.579 370.823C180.581 369.781 183.433 367.866 185.664 365.436C188.04 362.849 189.263 360.195 188.927 357.675ZM67.8671 339.4C66.7009 339.237 65.4716 339.218 64.2203 339.309L59.9396 361.853C61.5726 361.627 63.0501 361.321 64.3847 360.954C74.0353 358.299 76.4252 352.501 76.6567 350.122C76.2244 346.098 74.9923 343.642 73.5713 342.13C72.1261 340.592 70.1992 339.724 67.8671 339.4Z" fill="#35201F" id="Vector 2212 (Stroke)"/>
</g>
</g>
</svg>